<svg width="19" height="10" viewBox="0 0 19 10" fill="none" xmlns="http://www.w3.org/2000/svg">
<path fill-rule="evenodd" clip-rule="evenodd" d="M4.64894 1.56384C3.73761 1.56384 2.8636 1.92586 2.2192 2.57027C1.57479 3.21468 1.21277 4.08868 1.21277 5.00001C1.21277 5.91134 1.57479 6.78534 2.2192 7.42975C2.53828 7.74883 2.91708 8.00193 3.33397 8.17462C3.75087 8.3473 4.19769 8.43618 4.64894 8.43618H7.07447C7.40936 8.43618 7.68085 8.70767 7.68085 9.04256C7.68085 9.37746 7.40936 9.64895 7.07447 9.64895H4.64894C4.03843 9.64895 3.4339 9.5287 2.86987 9.29507C2.30583 9.06144 1.79334 8.719 1.36164 8.2873C0.489797 7.41546 0 6.23298 0 5.00001C0 3.76704 0.489797 2.58456 1.36164 1.71272C2.23349 0.840871 3.41596 0.351074 4.64894 0.351074H7.07447C7.40936 0.351074 7.68085 0.622561 7.68085 0.957457C7.68085 1.29235 7.40936 1.56384 7.07447 1.56384H4.64894ZM11.3191 0.957457C11.3191 0.622561 11.5906 0.351074 11.9255 0.351074H14.3511C14.9616 0.351074 15.5661 0.471323 16.1301 0.704953C16.6942 0.938584 17.2067 1.28102 17.6384 1.71272C18.0701 2.14441 18.4125 2.6569 18.6461 3.22094C18.8798 3.78498 19 4.3895 19 5.00001C19 5.61052 18.8798 6.21505 18.6461 6.77908C18.4125 7.34312 18.0701 7.85561 17.6384 8.2873C17.2067 8.719 16.6942 9.06144 16.1301 9.29507C15.5661 9.5287 14.9616 9.64895 14.3511 9.64895H11.9255C11.5906 9.64895 11.3191 9.37746 11.3191 9.04256C11.3191 8.70767 11.5906 8.43618 11.9255 8.43618H14.3511C14.8023 8.43618 15.2491 8.3473 15.666 8.17462C16.0829 8.00193 16.4617 7.74883 16.7808 7.42975C17.0999 7.11067 17.353 6.73187 17.5257 6.31498C17.6984 5.89808 17.7872 5.45125 17.7872 5.00001C17.7872 4.54877 17.6984 4.10194 17.5257 3.68505C17.353 3.26815 17.0999 2.88935 16.7808 2.57027C16.4617 2.25119 16.0829 1.99809 15.666 1.8254C15.2491 1.65272 14.8023 1.56384 14.3511 1.56384H11.9255C11.5906 1.56384 11.3191 1.29235 11.3191 0.957457Z" fill="url(#paint0_linear_830_7997)"/>
<path fill-rule="evenodd" clip-rule="evenodd" d="M5.65957 5.00001C5.65957 4.66511 5.93106 4.39363 6.26596 4.39363H12.734C13.0689 4.39363 13.3404 4.66511 13.3404 5.00001C13.3404 5.33491 13.0689 5.60639 12.734 5.60639H6.26596C5.93106 5.60639 5.65957 5.33491 5.65957 5.00001Z" fill="url(#paint1_linear_830_7997)"/>
<defs>
<linearGradient id="paint0_linear_830_7997" x1="15.0531" y1="-5.75065" x2="-3.74578" y2="11.2863" gradientUnits="userSpaceOnUse">
<stop stop-color="#706EE7"/>
<stop offset="0.5" stop-color="#726CE4"/>
<stop offset="1" stop-color="#8F57BD"/>
</linearGradient>
<linearGradient id="paint1_linear_830_7997" x1="15.0531" y1="-5.75065" x2="-3.74578" y2="11.2863" gradientUnits="userSpaceOnUse">
<stop stop-color="#706EE7"/>
<stop offset="0.5" stop-color="#726CE4"/>
<stop offset="1" stop-color="#8F57BD"/>
</linearGradient>
</defs>
</svg>
