<svg width="42" height="42" viewBox="0 0 42 42" fill="none" xmlns="http://www.w3.org/2000/svg">
<path fill-rule="evenodd" clip-rule="evenodd" d="M9 1.75C4.99594 1.75 1.75 4.99594 1.75 9V33C1.75 37.0041 4.99594 40.25 9 40.25H33C37.0041 40.25 40.25 37.0041 40.25 33V9C40.25 4.99594 37.0041 1.75 33 1.75H9ZM0.25 9C0.25 4.16751 4.16751 0.25 9 0.25H33C37.8325 0.25 41.75 4.16751 41.75 9V33C41.75 37.8325 37.8325 41.75 33 41.75H9C4.16751 41.75 0.25 37.8325 0.25 33V9ZM24.2718 12.9435C24.5562 13.2446 24.5425 13.7193 24.2413 14.0037L16.7084 21.1159L24.2413 28.2282C24.5425 28.5126 24.5561 28.9873 24.2718 29.2884C23.9874 29.5896 23.5127 29.6033 23.2116 29.3189L15.1011 21.6613C14.951 21.5196 14.8659 21.3223 14.8659 21.1159C14.8659 20.9096 14.951 20.7123 15.1011 20.5706L23.2116 12.913C23.5128 12.6286 23.9874 12.6423 24.2718 12.9435Z" fill="#5BD6F1"/>
</svg>
