<svg width="40" height="40" viewBox="0 0 40 40" fill="none" xmlns="http://www.w3.org/2000/svg">
<path d="M20.0002 9.04466C17.0963 9.04466 16.7322 9.05709 15.5919 9.10966C14.454 9.16198 13.6766 9.34433 12.9966 9.61125C12.2935 9.88706 11.6973 10.2561 11.1028 10.8562C10.5084 11.4563 10.1428 12.0583 9.86961 12.7681C9.60546 13.4546 9.42458 14.2391 9.37275 15.388C9.32068 16.5395 9.30835 16.9068 9.30835 19.8383C9.30835 22.7696 9.32068 23.1374 9.37275 24.2886C9.42458 25.4373 9.60546 26.222 9.86961 26.9085C10.1428 27.6184 10.5084 28.2203 11.1028 28.8202C11.6973 29.4203 12.2935 29.7893 12.9966 30.0654C13.6766 30.332 14.454 30.5146 15.5919 30.567C16.7322 30.6195 17.0963 30.632 20.0002 30.632C22.9038 30.632 23.2679 30.6195 24.4082 30.567C25.5463 30.5146 26.3237 30.332 27.0037 30.0654C27.7068 29.7893 28.3031 29.4203 28.8975 28.8202C29.4917 28.2203 29.8575 27.6184 30.1307 26.9085C30.3949 26.222 30.5758 25.4373 30.6276 24.2886C30.6797 23.1374 30.692 22.7696 30.692 19.8383C30.692 16.907 30.6797 16.5395 30.6276 15.388C30.5758 14.2391 30.3949 13.4546 30.1307 12.7681C29.8575 12.0583 29.4917 11.4563 28.8975 10.8562C28.3031 10.2561 27.7068 9.88706 27.0037 9.61125C26.3237 9.34433 25.5463 9.16198 24.4082 9.10966C23.2679 9.05709 22.9038 9.04466 20.0002 9.04466ZM20.0002 10.9895C22.855 10.9895 23.1931 11.0005 24.3207 11.0523C25.3629 11.1005 25.929 11.2763 26.3058 11.4241C26.8049 11.6199 27.1612 11.8538 27.5353 12.2315C27.9094 12.6091 28.1411 12.9687 28.335 13.4723C28.4814 13.8528 28.6555 14.4242 28.7033 15.4767C28.7546 16.6149 28.7655 16.9563 28.7655 19.8383C28.7655 22.7203 28.7546 23.0617 28.7033 24.2C28.6555 25.2522 28.4814 25.8238 28.335 26.204C28.1411 26.7079 27.9094 27.0675 27.5353 27.4452C27.1612 27.8228 26.8049 28.0567 26.3058 28.2525C25.929 28.4003 25.3629 28.5763 24.3207 28.6241C23.1931 28.6762 22.8553 28.6871 20.0002 28.6871C17.1451 28.6871 16.807 28.6762 15.6797 28.6241C14.6374 28.5763 14.0711 28.4003 13.6945 28.2525C13.1954 28.0567 12.8392 27.8228 12.4651 27.4452C12.091 27.0675 11.8593 26.7079 11.6653 26.204C11.5189 25.8238 11.3448 25.2522 11.297 24.2C11.2457 23.0617 11.2349 22.7203 11.2349 19.8383C11.2349 16.9563 11.2457 16.6149 11.297 15.4767C11.3448 14.4242 11.5189 13.8528 11.6653 13.4723C11.8593 12.9687 12.0907 12.6091 12.4651 12.2315C12.8392 11.8538 13.1954 11.6199 13.6945 11.4241C14.0711 11.2763 14.6374 11.1005 15.6797 11.0523C16.8072 11.0005 17.1453 10.9895 20.0002 10.9895Z" fill="#A38CD3"/>
<path d="M20.0001 23.436C18.0318 23.436 16.4361 21.8251 16.4361 19.838C16.4361 17.851 18.0318 16.24 20.0001 16.24C21.9684 16.24 23.5641 17.851 23.5641 19.838C23.5641 21.8251 21.9684 23.436 20.0001 23.436ZM20.0001 14.2954C16.9679 14.2954 14.5098 16.7769 14.5098 19.838C14.5098 22.8991 16.9679 25.3806 20.0001 25.3806C23.0323 25.3806 25.4904 22.8991 25.4904 19.838C25.4904 16.7769 23.0323 14.2954 20.0001 14.2954Z" fill="#A38CD3"/>
<path d="M26.9901 14.0763C26.9901 14.7918 26.4158 15.3716 25.7073 15.3716C24.9987 15.3716 24.4243 14.7918 24.4243 14.0763C24.4243 13.3609 24.9987 12.7811 25.7073 12.7811C26.4158 12.7811 26.9901 13.3609 26.9901 14.0763Z" fill="#A38CD3"/>
</svg>
