<svg width="40" height="40" viewBox="0 0 40 40" fill="none" xmlns="http://www.w3.org/2000/svg">
<path d="M15 21.3249L17.1437 27.43C17.1437 27.43 17.4116 28 17.6985 28C17.9857 28 22.2536 23.4315 22.2536 23.4315L27 14L15.0766 19.7498L15 21.3249Z" fill="#726294"/>
<path d="M17.4413 23L17.0076 27.4004C17.0076 27.4004 16.826 28.7496 18.2376 27.4004C19.649 26.0539 21 25.0144 21 25.0144L17.4413 23Z" fill="#8F7BBA"/>
<path d="M14.9167 21.3266L10.4001 19.8985C10.4001 19.8985 9.86104 19.6858 10.0343 19.2045C10.07 19.1061 10.1421 19.021 10.3576 18.8747C11.3587 18.1993 28.8825 12.0909 28.8825 12.0909C28.8825 12.0909 29.3774 11.9287 29.6697 12.0377C29.8032 12.0856 29.8885 12.1414 29.9606 12.3435C29.9867 12.418 30.0018 12.5749 29.9998 12.7291C29.9982 12.8434 29.9839 12.9472 29.9735 13.112C29.8669 14.7821 26.6735 27.2461 26.6735 27.2461C26.6735 27.2461 26.4824 27.9748 25.7977 27.9987C25.5482 28.0094 25.245 27.9588 24.8827 27.6583C23.5394 26.5361 18.8956 23.5098 17.8693 22.845C17.8117 22.8078 17.795 22.7573 17.7851 22.7094C17.7709 22.6403 17.8495 22.5525 17.8495 22.5525C17.8495 22.5525 25.9354 15.5825 26.1506 14.8512C26.1674 14.7954 26.1048 14.7661 26.0201 14.79C25.483 14.9815 16.1728 20.683 15.1454 21.3133C15.0854 21.3505 14.9167 21.3266 14.9167 21.3266Z" fill="#a38cd3"/>
</svg>
