<svg width="40" height="40" viewBox="0 0 40 40" fill="none" xmlns="http://www.w3.org/2000/svg">
<path fill-rule="evenodd" clip-rule="evenodd" d="M19 14.2647C19.0013 14.1175 19.1471 13.999 19.3257 14C21.203 14.0108 22.7898 14.5258 24.0639 15.5493C25.3486 16.5813 25.9839 17.9864 26 19.7314C26.0013 19.8786 25.8576 19.9989 25.679 20C25.5003 20.0011 25.3544 19.8827 25.353 19.7355C25.3379 18.1003 24.7476 16.8431 23.6123 15.9311C22.4662 15.0104 21.0433 14.543 19.3212 14.5331C19.1426 14.5321 18.9988 14.4119 19 14.2647ZM19.5711 15.63C19.5841 15.4831 19.7391 15.3728 19.9173 15.3835C21.2758 15.4655 22.3692 15.848 23.1656 16.5644L23.1657 16.5645C23.9535 17.2739 24.328 18.1564 24.3008 19.1915C24.2969 19.3387 24.149 19.4554 23.9704 19.4522C23.7918 19.4491 23.6501 19.3271 23.654 19.18C23.6779 18.2671 23.3522 17.5221 22.6885 16.9245C22.0267 16.3293 21.1018 15.9896 19.8701 15.9153C19.6919 15.9045 19.5581 15.7768 19.5711 15.63ZM20.0615 17.0661C20.0708 16.9191 20.2229 16.8061 20.4014 16.8138C21.0689 16.8425 21.6242 17.009 22.0198 17.346C22.4138 17.6817 22.6069 18.1507 22.6408 18.714C22.6497 18.861 22.5122 18.9862 22.3338 18.9935C22.1553 19.0008 22.0035 18.8875 21.9946 18.7404C21.9656 18.2583 21.8051 17.93 21.5547 17.7167C21.3058 17.5046 20.926 17.3702 20.3677 17.3462C20.1892 17.3385 20.0522 17.2131 20.0615 17.0661Z" fill="#A38CD3"/>
<path d="M28.5167 11.3409C27.9402 10.7906 25.6107 9.041 20.4218 9.01723C20.4218 9.01723 14.3028 8.63547 11.3198 11.4662C9.65936 13.1845 9.07523 15.6987 9.01362 18.8158C8.952 21.9329 8.87229 27.7746 14.3149 29.3585H14.3202L14.3167 31.7755C14.3167 31.7755 14.2819 32.754 14.9046 32.9535C15.6579 33.1956 16.1 32.4519 16.8192 31.6502C17.214 31.2101 17.7591 30.5636 18.1699 30.0695C21.8922 30.3936 24.755 29.6528 25.0802 29.5433C25.8317 29.2912 30.0846 28.7275 30.7763 22.8863C31.4902 16.8656 30.4309 13.0574 28.5167 11.3409ZM29.1475 22.4544C28.5637 27.3316 25.1143 27.6381 24.4783 27.8491C24.2078 27.9392 21.6934 28.5864 18.5316 28.3728C18.5316 28.3728 16.1756 31.3134 15.4397 32.078C15.3248 32.1976 15.1897 32.2459 15.0996 32.2221C14.9729 32.19 14.9381 32.0348 14.9395 31.8079C14.9415 31.4838 14.9596 27.7915 14.9596 27.7915C10.3556 26.469 10.624 21.4972 10.6762 18.8936C10.7284 16.2901 11.2011 14.1573 12.6054 12.7228C15.1285 10.3584 20.3261 10.7117 20.3261 10.7117C24.7154 10.7315 26.8186 12.099 27.3063 12.5571C28.9257 13.9916 29.7507 17.4242 29.1475 22.453V22.4544Z" fill="#A38CD3"/>
<path d="M20.8622 22.7462C20.8622 22.7462 21.2747 22.7822 21.4968 22.4991L21.9298 21.9355C22.1387 21.656 22.6427 21.4777 23.1363 21.7622C23.5062 21.9805 23.8654 22.2178 24.2123 22.4732C24.5399 22.7224 25.2107 23.3015 25.2128 23.3015C25.5324 23.5806 25.6062 23.9905 25.3886 24.4227C25.3886 24.4252 25.3869 24.4295 25.3869 24.4317C25.1472 24.8614 24.843 25.249 24.4856 25.5798C24.4814 25.582 24.4814 25.5841 24.4776 25.5863C24.1671 25.8547 23.862 26.0073 23.5624 26.0441C23.5183 26.0521 23.4735 26.0549 23.4287 26.0527C23.2966 26.054 23.1652 26.0331 23.0396 25.9908L23.0298 25.976C22.5682 25.8413 21.7975 25.5042 20.514 24.7717C19.7713 24.3527 19.0642 23.8695 18.4003 23.3271C18.0676 23.0554 17.7502 22.7641 17.4497 22.4548L17.3856 22.3885L17.3536 22.355C17.3428 22.3442 17.3323 22.3331 17.3215 22.3219C17.0226 22.011 16.7411 21.6826 16.4784 21.3383C15.9543 20.6516 15.4872 19.9201 15.0822 19.1519C14.3741 17.8236 14.0483 17.027 13.9181 16.5487L13.9038 16.5386C13.863 16.4086 13.8429 16.2726 13.8443 16.136C13.8419 16.0897 13.8446 16.0433 13.8523 15.9977C13.8897 15.6884 14.0374 15.3727 14.2955 15.0505C14.2975 15.0465 14.2996 15.0465 14.3017 15.0422C14.6214 14.6724 14.996 14.3578 15.4115 14.1101C15.4136 14.1101 15.4177 14.108 15.4202 14.108C15.8379 13.8829 16.2341 13.9592 16.5035 14.288C16.5056 14.2902 17.0643 14.9842 17.3041 15.3231C17.551 15.6824 17.7804 16.0543 17.9913 16.4374C18.2663 16.9477 18.094 17.4703 17.8239 17.6857L17.2791 18.1337C17.0041 18.3635 17.0403 18.7903 17.0403 18.7903C17.0403 18.7903 17.8472 21.9499 20.8622 22.7462Z" fill="#A38CD3"/>
</svg>
