<svg width="40" height="40" viewBox="0 0 40 40" fill="none" xmlns="http://www.w3.org/2000/svg">
<path fill-rule="evenodd" clip-rule="evenodd" d="M25.4596 21.9055C25.1904 21.7709 23.8672 21.1198 23.6204 21.03C23.3736 20.9404 23.1942 20.8954 23.0146 21.1648C22.8355 21.434 22.3195 22.0403 22.1625 22.2199C22.0056 22.3993 21.8486 22.4219 21.5794 22.2871C21.3102 22.1525 20.443 21.8685 19.4148 20.9515C18.6146 20.2383 18.0745 19.357 17.9175 19.0876C17.7605 18.8182 17.9006 18.6725 18.0355 18.5384C18.1565 18.4179 18.3047 18.2242 18.4393 18.067C18.5738 17.91 18.6186 17.7975 18.7082 17.6182C18.7982 17.4385 18.7532 17.2813 18.6858 17.1467C18.6186 17.0119 18.0803 15.6876 17.8561 15.1487C17.6375 14.6242 17.4159 14.6951 17.2503 14.6868C17.0936 14.679 16.914 14.6775 16.7346 14.6775C16.5552 14.6775 16.2637 14.7447 16.0169 15.0141C15.7701 15.2836 15.0747 15.9344 15.0747 17.2589C15.0747 18.5832 16.0393 19.8627 16.1739 20.0423C16.3084 20.2219 18.0717 22.9399 20.7718 24.1055C21.4141 24.3827 21.9155 24.5482 22.3064 24.6722C22.9512 24.877 23.5381 24.8481 24.0018 24.7789C24.5187 24.7017 25.5942 24.1278 25.8186 23.4992C26.043 22.8707 26.043 22.3321 25.9756 22.2199C25.9082 22.1077 25.7288 22.0403 25.4596 21.9055ZM20.5484 28.6091H20.5447C18.9381 28.6086 17.3625 28.1772 15.9877 27.3616L15.6606 27.1673L12.272 28.0562L13.1766 24.7533L12.9635 24.4146C12.0674 22.9895 11.594 21.3424 11.5947 19.6511C11.5967 14.716 15.6133 10.7009 20.552 10.7009C22.9434 10.7019 25.1917 11.6343 26.882 13.3258C28.5723 15.0179 29.5027 17.2667 29.5022 19.6584C29.4999 24.594 25.4833 28.6091 20.5484 28.6091ZM28.1686 12.0406C26.1348 10.0048 23.43 8.8833 20.5484 8.88204C14.6106 8.88204 9.77813 13.7128 9.77587 19.6506C9.77511 21.5485 10.2712 23.4011 11.2138 25.0343L9.68555 30.6146L15.396 29.117C16.9696 29.9751 18.7411 30.4272 20.5439 30.428H20.5484C20.5489 30.428 20.5482 30.428 20.5484 30.428C26.4853 30.428 31.3183 25.5968 31.3208 19.6592C31.3218 16.7817 30.2025 14.0758 28.1686 12.0406Z" fill="#A38CD3"/>
</svg>
