<svg width="40" height="40" viewBox="0 0 40 40" fill="none" xmlns="http://www.w3.org/2000/svg">
<path d="M20.8932 27C14.06 27 10.1624 22.4955 10 15H13.4229C13.5353 20.5015 16.0587 22.8318 18.0575 23.3123V15H21.2805V19.7447C23.2542 19.5405 25.3279 17.3784 26.0275 15H29.2505C28.9869 16.2335 28.4614 17.4014 27.7069 18.4307C26.9524 19.46 25.9852 20.3285 24.8657 20.982C26.1153 21.579 27.2191 22.4241 28.1041 23.4615C28.9891 24.4989 29.6353 25.7049 30 27H26.4522C26.1248 25.8751 25.4594 24.8681 24.5394 24.1053C23.6194 23.3424 22.4858 22.8577 21.2805 22.7117V27H20.8932Z" fill="#A38CD3"/>
</svg>
