<svg width="148" height="40" viewBox="0 0 148 40" fill="none" xmlns="http://www.w3.org/2000/svg">
<g clip-path="url(#clip0_657_17758)">
<path fill-rule="evenodd" clip-rule="evenodd" d="M63.6877 11.2105L32.899 6.35881V0.320557L63.6877 5.98876V11.2105Z" fill="#5151BC"/>
<path fill-rule="evenodd" clip-rule="evenodd" d="M63.6877 20.7833L32.899 16.952V11.5491L63.6877 16.0048V20.7833Z" fill="#5151BC"/>
<path fill-rule="evenodd" clip-rule="evenodd" d="M63.6877 30.4796L32.899 28.4691V22.7757L63.6877 25.6002V30.4796Z" fill="#5151BC"/>
<path fill-rule="evenodd" clip-rule="evenodd" d="M32.899 39.8856V34.0074L63.6877 35.2518V39.8856H32.899Z" fill="#5151BC"/>
<path fill-rule="evenodd" clip-rule="evenodd" d="M0.206665 20.7834L19.2393 18.415L19.2392 13.2505L0.206665 16.0049V20.7834Z" fill="#3A3A87"/>
<path fill-rule="evenodd" clip-rule="evenodd" d="M0.2067 30.4798L19.2391 29.2369L19.2395 23.8543L0.206665 25.6003L0.2067 30.4798Z" fill="#3A3A87"/>
<path fill-rule="evenodd" clip-rule="evenodd" d="M19.2395 39.8856V34.4826L0.206665 35.2518V39.8856H19.2395Z" fill="#3A3A87"/>
<path fill-rule="evenodd" clip-rule="evenodd" d="M79.6397 22.2819H77.5722V7.86792H71.1662V22.2819H69.1101V6.11734H79.6397V22.2819ZM91.1398 14.8249H85.3514V20.5314H92.095V22.2819H83.2954V6.11734H91.9837V7.86792H85.3514V13.0743H91.1398V14.8249ZM96.7749 15.9616V22.2819H94.7188V6.11734H99.9357C101.455 6.11734 102.651 6.56828 103.518 7.46629C104.389 8.36813 104.823 9.56547 104.823 11.0622C104.823 12.6158 104.408 13.8169 103.58 14.6543C102.751 15.4955 101.585 15.9313 100.081 15.9616H96.7749ZM96.7749 14.211H99.9357C100.849 14.211 101.551 13.942 102.038 13.4001C102.521 12.8583 102.767 12.0853 102.767 11.0774C102.767 10.1073 102.517 9.33054 102.015 8.74702C101.512 8.15973 100.822 7.86792 99.9472 7.86792H96.7749V14.211ZM107.477 22.2819V6.11734H112.142C113.63 6.11734 114.754 6.4773 115.506 7.19727C116.261 7.91343 116.637 8.9933 116.637 10.4332C116.637 11.1873 116.446 11.8542 116.062 12.4339C115.682 13.0137 115.164 13.4607 114.512 13.779C115.26 13.9988 115.855 14.4535 116.292 15.1431C116.733 15.829 116.952 16.6588 116.952 17.625C116.952 19.0763 116.549 20.2131 115.744 21.0391C114.938 21.8689 113.787 22.2819 112.299 22.2819H107.477ZM109.533 14.7566V20.5314H112.345C113.124 20.5314 113.741 20.2813 114.198 19.7773C114.654 19.2733 114.884 18.5648 114.884 17.6554C114.884 15.7229 114.052 14.7566 112.387 14.7566H109.533ZM109.533 13.006H112.176C112.886 13.006 113.461 12.7711 113.899 12.2975C114.34 11.8238 114.558 11.1948 114.558 10.4105C114.558 9.52001 114.359 8.87584 113.96 8.47424C113.565 8.06875 112.959 7.86792 112.142 7.86792H109.533V13.006ZM122.192 12.7105H125.498C126.968 12.7181 128.114 13.1424 128.947 13.9837C129.779 14.8211 130.194 15.9806 130.194 17.4507C130.194 18.9323 129.772 20.107 128.932 20.9784C128.088 21.8462 126.921 22.2819 125.429 22.2819H120.136V6.11734H122.192V12.7105ZM133.688 22.2819H131.632V6.11734H133.688V22.2819ZM122.192 14.4611V20.5314H125.475C126.315 20.5314 126.964 20.2472 127.432 19.675C127.896 19.1067 128.126 18.3564 128.126 17.4242C128.126 16.5073 127.896 15.7835 127.435 15.253C126.975 14.7263 126.323 14.4611 125.487 14.4611H122.192ZM145.944 6.11734H148V22.2819H145.944V9.82695L139.569 22.2819H137.501V6.11734H139.569V18.5723L145.944 6.11734ZM146.159 2.0705C146.159 2.97233 145.848 3.69987 145.23 4.24929C144.613 4.79871 143.8 5.07155 142.798 5.07155C141.793 5.07155 140.98 4.79491 140.359 4.24173C139.737 3.6923 139.427 2.96477 139.427 2.0705H141.122C141.122 2.58964 141.264 2.99506 141.548 3.29064C141.836 3.58239 142.25 3.73015 142.798 3.73015C143.32 3.73015 143.731 3.58619 144.026 3.29444C144.325 3.00643 144.471 2.5972 144.471 2.0705H146.159Z" fill="#F9F9F9"/>
<path fill-rule="evenodd" clip-rule="evenodd" d="M76.8964 36.1767H78.154L78.1414 39.8855H76.7935V37.3099H70.4705V39.8855H69.1176L69.1101 36.1767H69.8957C70.2397 35.7499 70.5208 35.1097 70.7391 34.2511C70.9575 33.3951 71.0956 32.436 71.1533 31.3788L71.3591 26.8458H76.8964V36.1767ZM71.3315 36.1767H75.5435V27.9791H72.6694L72.5138 31.3567C72.4561 32.463 72.3205 33.4172 72.1097 34.2193C71.8988 35.0214 71.6403 35.6738 71.3315 36.1767ZM84.9137 34.5725H81.2966L80.4658 37.3099H79.0827L82.5316 26.8458H83.6862L87.1426 37.3099H85.7596L84.9137 34.5725ZM81.6481 33.4392H84.5698L83.1064 28.6855L81.6481 33.4392ZM93.9073 27.9791H91.091V37.3099H89.7456V27.9791H86.9368V26.8458H93.9073V27.9791ZM99.9014 34.5725H96.2844L95.4536 37.3099H94.0705L97.5194 26.8458H98.674L102.13 37.3099H100.747L99.9014 34.5725ZM96.6359 33.4392H99.5576L98.0942 28.6855L96.6359 33.4392ZM105.815 33.4098H102.778V32.3207H105.815V33.4098ZM107.387 26.8458H108.74V36.1767H112.924V26.8458H114.272V36.1472H115.241L115.11 39.8266H113.903V37.3099H107.387V26.8458ZM122.081 32.4826H118.293V36.1767H122.706V37.3099H116.947V26.8458H122.633V27.9791H118.293V31.3494H122.081V32.4826ZM131.433 37.3099H130.08V32.4826H125.771V37.3099H124.425V26.8458H125.771V31.3494H130.08V26.8458H131.433V37.3099ZM139.809 27.9791H136.993V37.3099H135.648V27.9791H132.839V26.8458H139.809V27.9791ZM142.734 33.2185V37.3099H141.388V26.8458H144.802C145.796 26.8458 146.579 27.1377 147.147 27.7191C147.716 28.3029 148 29.0779 148 30.0469C148 31.0526 147.729 31.8301 147.187 32.3722C146.645 32.9168 145.881 33.1988 144.897 33.2185H142.734ZM142.734 32.0852H144.802C145.4 32.0852 145.859 31.9111 146.178 31.5603C146.494 31.2095 146.655 30.7092 146.655 30.0567C146.655 29.4287 146.491 28.9259 146.163 28.5481C145.834 28.1679 145.382 27.9791 144.81 27.9791H142.734V32.0852Z" fill="#F9F9F9"/>
<path fill-rule="evenodd" clip-rule="evenodd" d="M0.206665 5.98876L30.9954 0.320557V39.8856H25.1174V7.2851L0.206665 11.2105V5.98876Z" fill="#3A3A87"/>
</g>
<defs>
<clipPath id="clip0_657_17758">
<rect width="148" height="39.7709" fill="white" transform="translate(0 0.114563)"/>
</clipPath>
</defs>
</svg>
