<svg width="145" height="145" viewBox="0 0 145 145" fill="none" xmlns="http://www.w3.org/2000/svg">
<path fill-rule="evenodd" clip-rule="evenodd" d="M128.025 26.7019L73.246 18.0698V7.32666L128.025 17.4115V26.7019Z" fill="#5151BC"/>
<path fill-rule="evenodd" clip-rule="evenodd" d="M128.025 43.7337L73.246 36.9171V27.3042L128.025 35.2319V43.7337Z" fill="#5151BC"/>
<path fill-rule="evenodd" clip-rule="evenodd" d="M128.025 60.9851L73.246 57.408V47.2783L128.025 52.3036V60.9851Z" fill="#5151BC"/>
<path fill-rule="evenodd" clip-rule="evenodd" d="M73.246 77.72V67.2617L128.025 69.4756V77.72H73.246Z" fill="#5151BC"/>
<path fill-rule="evenodd" clip-rule="evenodd" d="M15.08 43.734L48.9427 39.5202L48.9424 30.3315L15.08 35.2322V43.734Z" fill="#3A3A87"/>
<path fill-rule="evenodd" clip-rule="evenodd" d="M15.08 60.9852L48.9423 58.774L48.9429 49.1973L15.08 52.3037L15.08 60.9852Z" fill="#3A3A87"/>
<path fill-rule="evenodd" clip-rule="evenodd" d="M48.9429 77.7203V68.1074L15.08 69.4759V77.7203H48.9429Z" fill="#3A3A87"/>
<path fill-rule="evenodd" clip-rule="evenodd" d="M30.3283 112.669H27.3764V91.8355H18.2302V112.669H15.2947V89.3053H30.3283V112.669ZM46.7476 101.891H38.4832V110.139H48.1114V112.669H35.5477V89.3053H47.9526V91.8355H38.4832V99.3606H46.7476V101.891ZM54.7931 103.534V112.669H51.8575V89.3053H59.3059C61.4747 89.3053 63.1834 89.957 64.4212 91.255C65.6644 92.5585 66.2833 94.2891 66.2833 96.4524C66.2833 98.6979 65.6918 100.434 64.5088 101.644C63.3259 102.86 61.6609 103.49 59.514 103.534H54.7931ZM54.7931 101.004H59.3059C60.6094 101.004 61.6116 100.615 62.3072 99.8316C62.9972 99.0484 63.3478 97.9312 63.3478 96.4743C63.3478 95.0723 62.9918 93.9495 62.2743 93.1061C61.5568 92.2573 60.571 91.8355 59.3224 91.8355H54.7931V101.004ZM70.0733 112.669V89.3053H76.733C78.858 89.3053 80.4626 89.8255 81.5361 90.8662C82.615 91.9013 83.1517 93.4621 83.1517 95.5433C83.1517 96.6332 82.8779 97.5971 82.3303 98.435C81.7881 99.273 81.0487 99.9192 80.1177 100.379C81.1856 100.697 82.0345 101.354 82.6588 102.351C83.2887 103.342 83.6009 104.542 83.6009 105.938C83.6009 108.036 83.0258 109.679 81.8757 110.873C80.7256 112.072 79.0825 112.669 76.9576 112.669H70.0733ZM73.0088 101.792V110.139H77.0233C78.135 110.139 79.0168 109.777 79.6685 109.049C80.3203 108.321 80.6489 107.296 80.6489 105.982C80.6489 103.189 79.4604 101.792 77.0835 101.792H73.0088ZM73.0088 99.262H76.7823C77.7955 99.262 78.617 98.9224 79.2414 98.2379C79.8712 97.5533 80.1834 96.6441 80.1834 95.5104C80.1834 94.2234 79.8986 93.2923 79.3289 92.7119C78.7649 92.1258 77.8995 91.8355 76.733 91.8355H73.0088V99.262ZM91.0821 98.8348H95.8031C97.9007 98.8458 99.5382 99.4591 100.727 100.675C101.915 101.885 102.507 103.561 102.507 105.686C102.507 107.828 101.904 109.525 100.705 110.785C99.4999 112.039 97.835 112.669 95.7045 112.669H88.1466V89.3053H91.0821V98.8348ZM107.496 112.669H104.56V89.3053H107.496V112.669ZM91.0821 101.365V110.139H95.7702C96.9697 110.139 97.8952 109.728 98.5634 108.901C99.226 108.08 99.5547 106.995 99.5547 105.648C99.5547 104.323 99.226 103.277 98.5688 102.51C97.9116 101.748 96.9806 101.365 95.7867 101.365H91.0821ZM124.994 89.3053H127.93V112.669H124.994V94.667L115.892 112.669H112.94V89.3053H115.892V107.307L124.994 89.3053ZM125.301 83.4561C125.301 84.7595 124.857 85.8111 123.976 86.6052C123.094 87.3993 121.933 87.7937 120.503 87.7937C119.068 87.7937 117.907 87.3939 117.02 86.5943C116.133 85.8002 115.689 84.7486 115.689 83.4561H118.11C118.11 84.2064 118.313 84.7924 118.718 85.2196C119.129 85.6413 119.72 85.8549 120.503 85.8549C121.248 85.8549 121.834 85.6468 122.256 85.2251C122.683 84.8088 122.891 84.2173 122.891 83.4561H125.301Z" fill="#F9F9F9"/>
<path fill-rule="evenodd" clip-rule="evenodd" d="M26.3812 132.064H28.1772L28.1593 137.484H26.2342V133.72H17.2041V137.484H15.272L15.2612 132.064H16.3832C16.8744 131.44 17.2759 130.504 17.5877 129.25C17.8996 127.999 18.0967 126.597 18.1792 125.052L18.4731 118.427H26.3812V132.064ZM18.4338 132.064H24.449V120.083H20.3444L20.1222 125.02C20.0397 126.636 19.8461 128.031 19.545 129.203C19.2439 130.375 18.8747 131.329 18.4338 132.064ZM37.831 129.719H32.6653L31.4788 133.72H29.5036L34.4291 118.427H36.078L41.0143 133.72H39.0391L37.831 129.719ZM33.1672 128.063H37.3399L35.2499 121.116L33.1672 128.063ZM50.6753 120.083H46.6531V133.72H44.7317V120.083H40.7204V118.427H50.6753V120.083ZM59.2357 129.719H54.0701L52.8835 133.72H50.9083L55.8338 118.427H57.4828L62.419 133.72H60.4439L59.2357 129.719ZM54.572 128.063H58.7447L56.6547 121.116L54.572 128.063ZM67.6814 128.02H63.3439V126.428H67.6814V128.02ZM69.9256 118.427H71.8578V132.064H77.8336V118.427H79.7586V132.021H81.1424L80.956 137.398H79.2316V133.72H69.9256V118.427ZM90.9109 126.665H85.5014V132.064H91.8035V133.72H83.5799V118.427H91.6995V120.083H85.5014V125.009H90.9109V126.665ZM104.268 133.72H102.336V126.665H96.1805V133.72H94.259V118.427H96.1805V125.009H102.336V118.427H104.268V133.72ZM116.23 120.083H112.208V133.72H110.287V120.083H106.275V118.427H116.23V120.083ZM120.407 127.741V133.72H118.485V118.427H123.36C124.78 118.427 125.898 118.854 126.709 119.703C127.522 120.557 127.927 121.689 127.927 123.105C127.927 124.575 127.54 125.712 126.766 126.504C125.992 127.3 124.902 127.712 123.497 127.741H120.407ZM120.407 126.084H123.36C124.214 126.084 124.87 125.83 125.325 125.317C125.777 124.805 126.006 124.073 126.006 123.12C126.006 122.202 125.773 121.467 125.303 120.915C124.834 120.359 124.188 120.083 123.371 120.083H120.407V126.084Z" fill="#F9F9F9"/>
<path fill-rule="evenodd" clip-rule="evenodd" d="M15.08 17.4115L69.8589 7.32666V77.7203H59.4009V19.7179L15.08 26.7019V17.4115Z" fill="#3A3A87"/>
</svg>
