<svg width="76" height="75" viewBox="0 0 76 75" fill="none" xmlns="http://www.w3.org/2000/svg">
<path fill-rule="evenodd" clip-rule="evenodd" d="M44.6727 3.1064C44.7103 2.9434 44.8724 2.8436 45.0349 2.88351L45.8327 3.07947L46.0172 2.27895C46.0548 2.11595 46.2169 2.01616 46.3794 2.05606C46.5418 2.09596 46.643 2.26045 46.6055 2.42345L46.3811 3.39685L47.0172 4.43047L47.5816 3.37059L47.2908 2.40847C47.2421 2.24735 47.3319 2.07868 47.4914 2.03174C47.6509 1.98479 47.8196 2.07734 47.8683 2.23845L48.1074 3.0297L48.8906 2.79916C49.0501 2.75221 49.2188 2.84477 49.2675 3.00588C49.3162 3.167 49.2263 3.33566 49.0669 3.38261L48.1146 3.66294L47.5502 4.7228L48.7507 4.69654L49.43 3.97268C49.5438 3.85147 49.7348 3.84729 49.8567 3.96334C49.9786 4.0794 49.9852 4.27175 49.8715 4.39296L49.3127 4.98825L49.9114 5.55822C50.0333 5.67428 50.0399 5.86662 49.9261 5.98784C49.8124 6.10905 49.6213 6.11323 49.4994 5.99717L48.7715 5.30411L47.571 5.33037L48.2071 6.364L49.1772 6.60228C49.3397 6.64218 49.4409 6.80667 49.4033 6.96967C49.3658 7.13267 49.2036 7.23247 49.0412 7.19256L48.2434 6.9966L48.0588 7.79712C48.0213 7.96012 47.8591 8.05991 47.6967 8.02001C47.5342 7.98011 47.433 7.81562 47.4706 7.65262L47.695 6.67921L47.0588 5.6456L46.4945 6.70548L46.7852 7.66762C46.8339 7.82874 46.7441 7.9974 46.5846 8.04435C46.4251 8.09129 46.2564 7.99874 46.2077 7.83762L45.9686 7.04637L45.1854 7.27692C45.026 7.32386 44.8572 7.23131 44.8085 7.07019C44.7598 6.90908 44.8497 6.74041 45.0091 6.69347L45.9615 6.41313L46.5258 5.35323L45.3253 5.3795L44.646 6.10336C44.5323 6.22458 44.3412 6.22877 44.2193 6.11273C44.0974 5.99668 44.0908 5.80433 44.2046 5.68311L44.7632 5.08779L44.1646 4.51784C44.0427 4.40177 44.0362 4.20943 44.1499 4.08822C44.2637 3.96701 44.4547 3.96284 44.5766 4.0789L45.3045 4.77193L46.505 4.74567L45.8689 3.71207L44.8988 3.47379C44.7363 3.43389 44.6351 3.2694 44.6727 3.1064Z" fill="#CCCEFF"/>
<path fill-rule="evenodd" clip-rule="evenodd" d="M30.1103 4.45284C30.14 4.32413 30.268 4.24533 30.3963 4.27684L31.0263 4.43158L31.172 3.79945C31.2017 3.67074 31.3297 3.59194 31.458 3.62344C31.5863 3.65495 31.6662 3.78484 31.6365 3.91355L31.4593 4.6822L31.9617 5.49839L32.4073 4.66146L32.1777 3.90172C32.1393 3.7745 32.2102 3.64131 32.3361 3.60424C32.462 3.56717 32.5953 3.64025 32.6337 3.76747L32.8225 4.39228L33.441 4.21023C33.5669 4.17316 33.7001 4.24625 33.7386 4.37347C33.777 4.5007 33.7061 4.63388 33.5802 4.67095L32.8282 4.89231L32.3826 5.72923L33.3305 5.7085L33.8669 5.1369C33.9568 5.04119 34.1076 5.03789 34.2039 5.12953C34.3001 5.22117 34.3053 5.37306 34.2155 5.46877L33.7743 5.93885L34.2471 6.38892C34.3433 6.48057 34.3485 6.63245 34.2587 6.72817C34.1689 6.82388 34.018 6.82718 33.9217 6.73554L33.3469 6.18826L32.399 6.209L32.9013 7.0252L33.6673 7.21336C33.7956 7.24487 33.8755 7.37476 33.8459 7.50347C33.8162 7.63218 33.6882 7.71098 33.5599 7.67948L32.9299 7.52474L32.7842 8.15686C32.7545 8.28558 32.6265 8.36438 32.4982 8.33287C32.3699 8.30136 32.29 8.17147 32.3197 8.04276L32.4968 7.27411L31.9945 6.45792L31.5489 7.29485L31.7785 8.05461C31.8169 8.18183 31.746 8.31502 31.6201 8.35209C31.4941 8.38916 31.3609 8.31607 31.3224 8.18885L31.1336 7.56403L30.5152 7.74609C30.3893 7.78315 30.256 7.71007 30.2176 7.58285C30.1791 7.45562 30.2501 7.32243 30.376 7.28537L31.128 7.064L31.5737 6.22705L30.6257 6.24779L30.0893 6.81939C29.9994 6.91511 29.8486 6.91842 29.7523 6.82678C29.6561 6.73515 29.6508 6.58326 29.7407 6.48754L30.1818 6.01745L29.7091 5.56738C29.6129 5.47573 29.6077 5.32385 29.6975 5.22814C29.7874 5.13242 29.9382 5.12913 30.0345 5.22078L30.6092 5.76803L31.5572 5.74729L31.0549 4.93111L30.2889 4.74295C30.1606 4.71144 30.0806 4.58156 30.1103 4.45284Z" fill="#CCCEFF"/>
<g clip-path="url(#clip0_214_761)">
<path fill-rule="evenodd" clip-rule="evenodd" d="M65.0019 3.34169C65.2575 3.20832 65.5728 3.30736 65.7061 3.5629L66.6599 5.39048L68.4875 4.43667C68.7431 4.3033 69.0583 4.40235 69.1917 4.65789C69.3251 4.91344 69.226 5.22871 68.9705 5.36208L66.8719 6.45735L65.9301 9.45514L68.9972 8.77182L70.2669 6.77398C70.4216 6.5307 70.7441 6.45883 70.9874 6.61345C71.2307 6.76807 71.3025 7.09063 71.1479 7.33391L70.0421 9.07373L71.7819 10.1795C72.0252 10.3342 72.097 10.6567 71.9424 10.9C71.7878 11.1433 71.4652 11.2151 71.222 11.0605L69.2242 9.7907L66.1572 10.474L68.2824 12.7884L70.6475 12.8892C70.9355 12.9015 71.159 13.1449 71.1467 13.4329C71.1344 13.7209 70.891 13.9444 70.603 13.9321L68.5434 13.8443L68.4556 15.904C68.4434 16.192 68.2 16.4155 67.912 16.4032C67.624 16.391 67.4005 16.1475 67.4127 15.8595L67.5135 13.4944L65.3883 11.18L64.4465 14.1778L65.5418 16.2764C65.6751 16.532 65.5761 16.8473 65.3205 16.9806C65.065 17.114 64.7497 17.015 64.6163 16.7594L63.6625 14.9318L61.835 15.8857C61.5794 16.019 61.2641 15.92 61.1308 15.6644C60.9974 15.4089 61.0964 15.0936 61.352 14.9602L63.4506 13.865L64.3924 10.8672L61.3253 11.5505L60.0555 13.5484C59.9009 13.7916 59.5783 13.8635 59.335 13.7089C59.0918 13.5542 59.0199 13.2317 59.1745 12.9884L60.2803 11.2486L58.5405 10.1428C58.2973 9.98813 58.2254 9.66557 58.38 9.4223C58.5347 9.17903 58.8572 9.10716 59.1005 9.26179L61.0983 10.5316L64.1654 9.8483L62.0401 7.53375L59.6751 7.43315C59.3871 7.4209 59.1635 7.1775 59.1758 6.88951C59.188 6.60151 59.4314 6.37798 59.7194 6.39023L61.779 6.47785L61.8669 4.41835C61.8792 4.13036 62.1226 3.90685 62.4106 3.91913C62.6986 3.93141 62.9221 4.17483 62.9098 4.46283L62.8089 6.82772L64.9343 9.14224L65.876 6.1445L64.7807 4.04588C64.6473 3.79033 64.7464 3.47506 65.0019 3.34169Z" fill="#CCCEFF"/>
</g>
<g clip-path="url(#clip1_214_761)">
<path fill-rule="evenodd" clip-rule="evenodd" d="M66.4012 23.3819C66.4908 23.2133 66.7 23.1492 66.8687 23.2387L68.0747 23.8788L68.7149 22.6728C68.8044 22.5042 69.0137 22.44 69.1823 22.5295C69.3509 22.619 69.4151 22.8283 69.3256 22.9969L68.5905 24.3818L69.2004 26.3717L70.6187 24.8486L70.5628 23.2817C70.556 23.0909 70.7052 22.9307 70.896 22.9239C71.0868 22.9171 71.247 23.0662 71.2538 23.257L71.3024 24.6216L72.6669 24.5729C72.8577 24.5661 73.0179 24.7153 73.0247 24.9061C73.0315 25.0969 72.8824 25.2571 72.6916 25.2639L71.1247 25.3197L69.7064 26.8428L71.7345 27.3095L73.0636 26.4777C73.2255 26.3764 73.4388 26.4255 73.5401 26.5873C73.6413 26.7492 73.5923 26.9625 73.4304 27.0638L72.273 27.7882L72.9974 28.9456C73.0987 29.1074 73.0496 29.3207 72.8878 29.422C72.7259 29.5233 72.5126 29.4742 72.4113 29.3124L71.5795 27.9833L69.5513 27.5166L70.1612 29.5065L71.5462 30.2416C71.7148 30.3311 71.7789 30.5404 71.6894 30.709C71.5999 30.8776 71.3906 30.9418 71.222 30.8523L70.016 30.2121L69.3758 31.4182C69.2863 31.5868 69.077 31.6509 68.9084 31.5614C68.7397 31.4719 68.6756 31.2626 68.7651 31.094L69.5002 29.7091L68.8903 27.7192L67.472 29.2424L67.5278 30.8093C67.5346 31.0001 67.3855 31.1603 67.1947 31.1671C67.0039 31.1739 66.8437 31.0247 66.8369 30.8339L66.7883 29.4694L65.4237 29.518C65.2329 29.5248 65.0727 29.3756 65.0659 29.1848C65.0591 28.994 65.2083 28.8338 65.3991 28.827L66.966 28.7712L68.3843 27.2481L66.356 26.7813L65.0271 27.6132C64.8653 27.7145 64.652 27.6654 64.5507 27.5036C64.4494 27.3418 64.4984 27.1285 64.6603 27.0272L65.8176 26.3027L65.0933 25.1453C64.992 24.9835 65.0411 24.7702 65.203 24.6689C65.3648 24.5676 65.5781 24.6167 65.6794 24.7786L66.5111 26.1075L68.5393 26.5743L67.9294 24.5845L66.5445 23.8494C66.3759 23.7599 66.3117 23.5506 66.4012 23.3819Z" fill="#CCCEFF"/>
</g>
<path fill-rule="evenodd" clip-rule="evenodd" d="M5.98521 2.81339C6.20296 2.67453 6.48951 2.74008 6.62524 2.95979L7.29183 4.03882L8.36122 3.35688C8.57896 3.21802 8.86552 3.28356 9.00125 3.50328C9.13698 3.72299 9.07049 4.01367 8.85274 4.15253L7.5524 4.98175L7.13458 6.80835L8.90291 6.25175L9.62373 4.87759C9.74444 4.64747 10.0258 4.55889 10.2523 4.67974C10.4787 4.80058 10.5644 5.08509 10.4437 5.3152L9.85088 6.44531L10.9628 7.0388C11.1892 7.15965 11.2749 7.44416 11.1542 7.67427C11.0335 7.90438 10.7521 7.99295 10.5257 7.87211L9.17359 7.15044L7.40529 7.70703L8.75575 8.97699L10.2872 8.91488C10.5436 8.90449 10.7585 9.10659 10.7672 9.36629C10.7759 9.626 10.575 9.84496 10.3186 9.85536L9.05915 9.90644L9.10174 11.1819C9.11041 11.4416 8.90955 11.6606 8.65311 11.671C8.39667 11.6814 8.18175 11.4792 8.17308 11.2195L8.12129 9.66863L6.77081 8.39866L6.35299 10.2253L7.16354 11.5373C7.29926 11.7571 7.23278 12.0477 7.01503 12.1866C6.79728 12.3255 6.51073 12.2599 6.375 12.0402L5.70842 10.9612L4.63902 11.6431C4.42127 11.782 4.13472 11.7164 3.99899 11.4967C3.86327 11.277 3.92976 10.9863 4.14751 10.8475L5.44785 10.0182L5.86567 8.19164L4.09734 8.74824L3.37648 10.1224C3.25577 10.3525 2.97436 10.4411 2.74794 10.3202C2.52152 10.1994 2.43583 9.91489 2.55654 9.68478L3.14937 8.55468L2.0374 7.96118C1.81098 7.84033 1.72529 7.55582 1.846 7.32571C1.96671 7.0956 2.24812 7.00702 2.47454 7.12787L3.82666 7.84955L5.59501 7.29294L4.24446 6.0229L2.71315 6.08511C2.45671 6.09552 2.24178 5.89344 2.23309 5.63373C2.2244 5.37402 2.42524 5.15505 2.68168 5.14463L3.94107 5.09347L3.89853 3.81811C3.88987 3.5584 4.09074 3.33944 4.34718 3.32905C4.60362 3.31867 4.81853 3.52078 4.82719 3.78048L4.87891 5.33125L6.22945 6.60128L6.64726 4.77471L5.83671 3.46264C5.70098 3.24293 5.76747 2.95225 5.98521 2.81339Z" fill="#CCCEFF"/>
<path fill-rule="evenodd" clip-rule="evenodd" d="M5.20308 23.0766C5.32653 22.8226 5.6311 22.7196 5.88336 22.8467L7.12225 23.4707L7.7285 22.223C7.85195 21.969 8.15652 21.866 8.40878 21.9931C8.66104 22.1202 8.76547 22.4291 8.64203 22.6832L7.90484 24.2003L8.56105 26.1418L9.89043 24.6108L9.7756 22.9176C9.75637 22.634 9.96792 22.3904 10.2481 22.3734C10.5283 22.3564 10.771 22.5725 10.7903 22.856L10.8847 24.2486L12.2607 24.1652C12.5409 24.1482 12.7836 24.3643 12.8028 24.6478C12.8221 24.9314 12.6105 25.175 12.3303 25.192L10.6571 25.2934L9.32777 26.8244L11.3133 27.2348L12.7049 26.3004C12.938 26.1439 13.254 26.2092 13.4107 26.4463C13.5674 26.6833 13.5056 27.0024 13.2726 27.1589L12.1281 27.9274L12.8979 29.0917C13.0546 29.3287 12.9928 29.6478 12.7597 29.8042C12.5267 29.9607 12.2107 29.8954 12.054 29.6583L11.1179 28.2426L9.13238 27.8321L9.78859 29.7736L11.295 30.5324C11.5473 30.6595 11.6517 30.9684 11.5283 31.2225C11.4048 31.4765 11.1003 31.5795 10.848 31.4524L9.60912 30.8284L9.00287 32.0761C8.87942 32.3301 8.57485 32.4331 8.32259 32.306C8.07032 32.1789 7.9659 31.87 8.08934 31.6159L8.82653 30.0988L8.17032 28.1573L6.84094 29.6883L6.95575 31.3816C6.97497 31.6651 6.76342 31.9087 6.48323 31.9257C6.20304 31.9427 5.96032 31.7266 5.94109 31.4431L5.84668 30.0505L4.47064 30.1339C4.19045 30.1509 3.94773 29.9348 3.92851 29.6513C3.90928 29.3677 4.12084 29.1241 4.40103 29.1071L6.07424 29.0057L7.40365 27.4747L5.418 27.0642L4.02649 27.9987C3.79347 28.1552 3.47748 28.0899 3.32072 27.8528C3.16396 27.6158 3.22579 27.2967 3.45882 27.1402L4.60322 26.3717L3.83352 25.2074C3.67679 24.9704 3.73865 24.6513 3.97169 24.4948C4.20474 24.3384 4.52072 24.4037 4.67745 24.6408L5.61335 26.0564L7.59898 26.4669L6.94278 24.5255L5.43633 23.7667C5.18407 23.6396 5.07964 23.3307 5.20308 23.0766Z" fill="#CCCEFF"/>
<rect x="6.01465" y="7.01465" width="61.9854" height="61.9854" rx="9" fill="url(#paint0_linear_214_761)"/>
<path d="M37.0072 61.2515C49.8448 61.2515 60.2517 50.8446 60.2517 38.007C60.2517 25.1694 49.8448 14.7625 37.0072 14.7625C24.1696 14.7625 13.7627 25.1694 13.7627 38.007C13.7627 50.8446 24.1696 61.2515 37.0072 61.2515Z" fill="#CCCEFF"/>
<path d="M37.0071 62.8013C23.3364 62.8013 12.2129 51.6778 12.2129 38.0071C12.2129 24.3364 23.3364 13.2129 37.0071 13.2129C50.6778 13.2129 61.8013 24.3354 61.8013 38.0071C61.8013 51.6788 50.6778 62.8013 37.0071 62.8013ZM37.0071 16.3123C25.0443 16.3123 15.3123 26.0443 15.3123 38.0071C15.3123 49.9699 25.0443 59.7019 37.0071 59.7019C48.9699 59.7019 58.7019 49.9699 58.7019 38.0071C58.7019 26.0443 48.9699 16.3123 37.0071 16.3123Z" fill="url(#paint1_linear_214_761)"/>
<path d="M13.7626 16.3123C14.6184 16.3123 15.3123 15.6184 15.3123 14.7626C15.3123 13.9067 14.6184 13.2129 13.7626 13.2129C12.9067 13.2129 12.2129 13.9067 12.2129 14.7626C12.2129 15.6184 12.9067 16.3123 13.7626 16.3123Z" fill="#94AFFF"/>
<path d="M60.2513 16.3123C61.1072 16.3123 61.801 15.6184 61.801 14.7626C61.801 13.9067 61.1072 13.2129 60.2513 13.2129C59.3955 13.2129 58.7017 13.9067 58.7017 14.7626C58.7017 15.6184 59.3955 16.3123 60.2513 16.3123Z" fill="#94AFFF"/>
<path d="M13.7626 62.8013C14.6184 62.8013 15.3123 62.1075 15.3123 61.2516C15.3123 60.3957 14.6184 59.7019 13.7626 59.7019C12.9067 59.7019 12.2129 60.3957 12.2129 61.2516C12.2129 62.1075 12.9067 62.8013 13.7626 62.8013Z" fill="#94AFFF"/>
<path d="M60.2513 62.8013C61.1072 62.8013 61.801 62.1075 61.801 61.2516C61.801 60.3957 61.1072 59.7019 60.2513 59.7019C59.3955 59.7019 58.7017 60.3957 58.7017 61.2516C58.7017 62.1075 59.3955 62.8013 60.2513 62.8013Z" fill="#94AFFF"/>
<path d="M44.4495 52.7446C42.9196 51.1973 41.7683 49.3172 41.0854 47.2512C40.3838 45.1042 40.201 42.8216 40.5519 40.5903C40.6012 40.2769 40.5531 39.9558 40.4141 39.6706C40.2751 39.3854 40.0519 39.1497 39.7747 38.9954C39.4974 38.8411 39.1795 38.7756 38.8638 38.8078C38.5481 38.84 38.2499 38.9683 38.0096 39.1755C37.8373 39.3288 37.6324 39.4408 37.4103 39.5031C37.4103 39.5031 37.4087 39.5031 37.408 39.5031C37.0959 39.5843 36.7662 39.5659 36.4653 39.4502C36.1595 39.3339 35.8248 39.3175 35.5092 39.4033C35.1935 39.4891 34.9131 39.6726 34.7083 39.9276C32.9292 42.134 31.8735 44.8351 31.6849 47.6632C31.4963 50.4912 32.1839 53.3087 33.6543 55.7318C33.7761 55.9336 33.9423 56.1049 34.1402 56.2327C34.3382 56.3606 34.5627 56.4416 34.7967 56.4697C37.89 56.8422 41.0272 56.4286 43.9183 55.2673C44.1552 55.1726 44.365 55.0209 44.5292 54.8256C44.6934 54.6303 44.8068 54.3975 44.8594 54.1479C44.9121 53.8983 44.9022 53.6395 44.8308 53.3946C44.7594 53.1496 44.6287 52.9261 44.4502 52.7439L44.4495 52.7446Z" fill="url(#paint2_radial_214_761)"/>
<path d="M36.4922 35.0547C35.4709 32.4109 33.6595 30.1461 31.3047 28.5689C28.9498 26.9917 26.166 26.1788 23.3324 26.2409C23.097 26.2455 22.8656 26.3037 22.656 26.4111C22.4464 26.5184 22.264 26.6721 22.1225 26.8605C20.253 29.3525 19.0425 32.2761 18.6033 35.3604C18.5668 35.613 18.5933 35.8706 18.6803 36.1105C18.7673 36.3505 18.9121 36.5652 19.102 36.7356C19.2919 36.9061 19.521 37.0271 19.7688 37.0878C20.0167 37.1485 20.2757 37.1471 20.5229 37.0837C22.6278 36.5331 24.8315 36.4761 26.9621 36.9172C29.1722 37.3826 31.2405 38.3656 32.9971 39.7854C33.2438 39.9849 33.5458 40.1038 33.8623 40.1261C34.1787 40.1485 34.4944 40.0731 34.7667 39.9103C35.039 39.7474 35.2547 39.5049 35.3848 39.2156C35.5149 38.9262 35.553 38.6038 35.494 38.2921C35.4369 38.0205 35.4567 37.7384 35.5512 37.4774C35.6458 37.2165 35.8112 36.9871 36.029 36.8151C36.2821 36.608 36.4631 36.3263 36.5463 36.0101C36.6295 35.6939 36.6105 35.3595 36.4922 35.0547Z" fill="url(#paint3_radial_214_761)"/>
<path d="M36.4922 35.0547C35.4709 32.4109 33.6595 30.1461 31.3047 28.5689C28.9498 26.9917 26.166 26.1788 23.3324 26.2409C23.097 26.2455 22.8656 26.3037 22.656 26.4111C22.4464 26.5184 22.264 26.6721 22.1225 26.8605C20.253 29.3525 19.0425 32.2761 18.6033 35.3604C18.5668 35.613 18.5933 35.8706 18.6803 36.1105C18.7673 36.3505 18.9121 36.5652 19.102 36.7356C19.2919 36.9061 19.521 37.0271 19.7688 37.0878C20.0167 37.1485 20.2757 37.1471 20.5229 37.0837C22.6278 36.5331 24.8315 36.4761 26.9621 36.9172C29.1722 37.3826 31.2405 38.3656 32.9971 39.7854C33.2438 39.9849 33.5458 40.1038 33.8623 40.1261C34.1787 40.1485 34.4944 40.0731 34.7667 39.9103C35.039 39.7474 35.2547 39.5049 35.3848 39.2156C35.5149 38.9262 35.553 38.6038 35.494 38.2921C35.4369 38.0205 35.4567 37.7384 35.5512 37.4774C35.6458 37.2165 35.8112 36.9871 36.029 36.8151C36.2821 36.608 36.4631 36.3263 36.5463 36.0101C36.6295 35.6939 36.6105 35.3595 36.4922 35.0547Z" fill="url(#paint4_radial_214_761)"/>
<path d="M54.1026 30.6903C52.8799 27.8248 50.9531 25.3148 48.5011 23.3931C48.3006 23.2351 48.0643 23.129 47.813 23.0843C47.5617 23.0396 47.3033 23.0576 47.0607 23.1368C46.818 23.2159 46.5987 23.3538 46.4221 23.5381C46.2456 23.7224 46.1173 23.9475 46.0486 24.1933C45.4738 26.2917 44.4214 28.2286 42.9737 29.8527C41.4653 31.534 39.5798 32.8338 37.472 33.6455C37.1759 33.7595 36.9219 33.9616 36.7444 34.2245C36.5668 34.4875 36.4742 34.7986 36.4792 35.1158C36.4841 35.433 36.5863 35.7411 36.772 35.9984C36.9576 36.2557 37.2178 36.4497 37.5173 36.5544C37.7815 36.6404 38.0164 36.7986 38.1953 37.0112C38.3743 37.2237 38.4901 37.4822 38.5297 37.7572C38.5825 38.0796 38.7358 38.3771 38.9678 38.6071C39.1998 38.8371 39.4986 38.9878 39.8214 39.0378C40.5176 39.146 41.2211 39.2004 41.9256 39.2005C44.4004 39.2061 46.8309 38.5448 48.9616 37.2861C51.0923 36.0274 52.8445 34.2179 54.034 32.0477C54.1479 31.8416 54.2133 31.6122 54.2252 31.3769C54.2371 31.1417 54.1952 30.9068 54.1026 30.6903Z" fill="url(#paint5_radial_214_761)"/>
<path d="M40.3604 20.2819C40.2386 20.0801 40.0724 19.9087 39.8745 19.7808C39.6765 19.6529 39.4519 19.5718 39.2179 19.5438C36.866 19.2599 34.4815 19.4302 32.1938 20.0454C31.4818 20.2377 30.7817 20.4719 30.0972 20.7465C29.8601 20.841 29.65 20.9927 29.4857 21.1879C29.3213 21.3832 29.2077 21.616 29.155 21.8658C29.1023 22.1155 29.1121 22.3744 29.1835 22.6194C29.2549 22.8644 29.3858 23.088 29.5645 23.2703C31.0942 24.8174 32.2455 26.6972 32.9285 28.7628C33.6301 30.9098 33.8129 33.1924 33.462 35.4237C33.4126 35.7372 33.4606 36.0583 33.5995 36.3436C33.7385 36.6289 33.9617 36.8647 34.239 37.019C34.5163 37.1734 34.8343 37.2389 35.15 37.2067C35.4657 37.1745 35.7639 37.0462 36.0043 36.839C36.2107 36.6534 36.4648 36.5293 36.738 36.4807C37.0112 36.4321 37.2926 36.4609 37.5503 36.564C37.856 36.679 38.1903 36.6947 38.5056 36.6089C38.8208 36.5232 39.101 36.3402 39.3064 36.0862C41.0854 33.8797 42.1411 31.1786 42.3297 28.3505C42.5183 25.5225 41.8307 22.7051 40.3604 20.2819Z" fill="url(#paint6_radial_214_761)"/>
<path d="M54.9126 39.2782C54.7225 39.1081 54.4935 38.9873 54.2457 38.9265C53.9979 38.8657 53.739 38.8667 53.4917 38.9295C51.3869 39.4811 49.183 39.5381 47.0525 39.096C44.8425 38.6308 42.7742 37.6482 41.0175 36.2288C40.7708 36.0294 40.4688 35.9104 40.1523 35.8881C39.8358 35.8658 39.5201 35.9411 39.2478 36.104C38.9756 36.2668 38.7598 36.5093 38.6298 36.7987C38.4997 37.0881 38.4616 37.4104 38.5206 37.7221C38.5666 37.949 38.5608 38.1833 38.5039 38.4077C38.5038 38.4083 38.5038 38.409 38.5039 38.4096C38.4186 38.721 38.2375 38.9976 37.9863 39.2003C37.7332 39.4071 37.5519 39.6885 37.4684 40.0045C37.3849 40.3205 37.4035 40.6547 37.5214 40.9595C38.5275 43.5637 40.3007 45.8011 42.6063 47.3754C44.9119 48.9497 47.6412 49.7869 50.433 49.776C50.5201 49.776 50.6032 49.776 50.682 49.7738C50.9175 49.769 51.1489 49.7106 51.3585 49.6031C51.5681 49.4956 51.7505 49.3418 51.8919 49.1534C53.7615 46.6617 54.9719 43.7385 55.4111 40.6546C55.4478 40.4019 55.4215 40.144 55.3345 39.9039C55.2476 39.6637 55.1027 39.4488 54.9126 39.2782Z" fill="url(#paint7_radial_214_761)"/>
<path d="M36.4973 39.46C36.2331 39.3739 35.9983 39.2155 35.8194 39.0029C35.6405 38.7904 35.5246 38.532 35.4848 38.257C35.432 37.9346 35.2786 37.6372 35.0466 37.4072C34.8147 37.1772 34.5159 37.0264 34.1931 36.9763C31.3929 36.5391 28.5259 36.9756 25.9826 38.2265C23.4394 39.4773 21.3436 41.4817 19.9806 43.9667C19.8667 44.1729 19.8014 44.4023 19.7895 44.6376C19.7777 44.8728 19.8198 45.1076 19.9124 45.3242C20.8424 47.5034 22.1824 49.4836 23.8595 51.1572C24.3819 51.6773 24.9344 52.1662 25.5142 52.6214C25.7147 52.7794 25.951 52.8856 26.2024 52.9303C26.4537 52.975 26.7122 52.957 26.9548 52.8778C27.1975 52.7985 27.4168 52.6606 27.5934 52.4762C27.7699 52.2918 27.8981 52.0666 27.9667 51.8207C28.5415 49.7225 29.5939 47.7857 31.0416 46.1617C32.5497 44.4805 34.4348 43.1806 36.5423 42.3686C36.8384 42.2548 37.0925 42.0527 37.2701 41.7898C37.4477 41.5269 37.5403 41.2158 37.5354 40.8986C37.5305 40.5814 37.4283 40.2733 37.2426 40.016C37.057 39.7587 36.7968 39.5647 36.4973 39.46Z" fill="url(#paint8_radial_214_761)"/>
<path d="M37.0073 42.656C39.5748 42.656 41.6562 40.5746 41.6562 38.0071C41.6562 35.4395 39.5748 33.3582 37.0073 33.3582C34.4398 33.3582 32.3584 35.4395 32.3584 38.0071C32.3584 40.5746 34.4398 42.656 37.0073 42.656Z" fill="url(#paint9_linear_214_761)"/>
<g filter="url(#filter0_d_214_761)">
<path d="M37.0076 40.3315C38.2913 40.3315 39.332 39.2908 39.332 38.0071C39.332 36.7233 38.2913 35.6826 37.0076 35.6826C35.7238 35.6826 34.6831 36.7233 34.6831 38.0071C34.6831 39.2908 35.7238 40.3315 37.0076 40.3315Z" fill="#94AFFF"/>
</g>
<defs>
<filter id="filter0_d_214_761" x="29.6831" y="30.6826" width="14.6489" height="14.6489" filterUnits="userSpaceOnUse" color-interpolation-filters="sRGB">
<feFlood flood-opacity="0" result="BackgroundImageFix"/>
<feColorMatrix in="SourceAlpha" type="matrix" values="0 0 0 0 0 0 0 0 0 0 0 0 0 0 0 0 0 0 127 0" result="hardAlpha"/>
<feOffset/>
<feGaussianBlur stdDeviation="2.5"/>
<feComposite in2="hardAlpha" operator="out"/>
<feColorMatrix type="matrix" values="0 0 0 0 0 0 0 0 0 0 0 0 0 0 0 0 0 0 1 0"/>
<feBlend mode="normal" in2="BackgroundImageFix" result="effect1_dropShadow_214_761"/>
<feBlend mode="normal" in="SourceGraphic" in2="effect1_dropShadow_214_761" result="shape"/>
</filter>
<linearGradient id="paint0_linear_214_761" x1="7.2668" y1="8.2668" x2="66.6949" y2="67.6949" gradientUnits="userSpaceOnUse">
<stop stop-color="#594997"/>
<stop offset="1" stop-color="#351258"/>
</linearGradient>
<linearGradient id="paint1_linear_214_761" x1="51.5003" y1="-19.3295" x2="-23.1732" y2="13.7878" gradientUnits="userSpaceOnUse">
<stop stop-color="#706EE7"/>
<stop offset="0.5" stop-color="#726CE4"/>
<stop offset="1" stop-color="#8F57BD"/>
</linearGradient>
<radialGradient id="paint2_radial_214_761" cx="0" cy="0" r="1" gradientUnits="userSpaceOnUse" gradientTransform="translate(32.0871 55.0346) scale(12.9327 19.1241)">
<stop stop-color="#0E2544"/>
<stop offset="1" stop-color="#414E79"/>
</radialGradient>
<radialGradient id="paint3_radial_214_761" cx="0" cy="0" r="1" gradientUnits="userSpaceOnUse" gradientTransform="translate(37.0586 37.779) scale(17.3382 17.3382)">
<stop stop-color="#1B2129"/>
<stop offset="1" stop-color="#2D313F"/>
</radialGradient>
<radialGradient id="paint4_radial_214_761" cx="0" cy="0" r="1" gradientUnits="userSpaceOnUse" gradientTransform="translate(19.1762 38.9064) scale(17.5939 14.9236)">
<stop stop-color="#0E2544"/>
<stop offset="1" stop-color="#414E79"/>
</radialGradient>
<radialGradient id="paint5_radial_214_761" cx="0" cy="0" r="1" gradientUnits="userSpaceOnUse" gradientTransform="translate(37.0592 37.779) scale(17.3382 17.3382)">
<stop stop-color="#0E2544"/>
<stop offset="1" stop-color="#414E79"/>
</radialGradient>
<radialGradient id="paint6_radial_214_761" cx="0" cy="0" r="1" gradientUnits="userSpaceOnUse" gradientTransform="translate(29.5544 35.6466) scale(12.9329 19.1258)">
<stop stop-color="#071426"/>
<stop offset="1" stop-color="#172555"/>
</radialGradient>
<radialGradient id="paint7_radial_214_761" cx="0" cy="0" r="1" gradientUnits="userSpaceOnUse" gradientTransform="translate(38.0058 48.5526) scale(17.5942 14.9229)">
<stop stop-color="#071426"/>
<stop offset="1" stop-color="#172555"/>
</radialGradient>
<radialGradient id="paint8_radial_214_761" cx="0" cy="0" r="1" gradientUnits="userSpaceOnUse" gradientTransform="translate(20.3678 51.5324) scale(17.338 17.3412)">
<stop stop-color="#071426"/>
<stop offset="1" stop-color="#172555"/>
</radialGradient>
<linearGradient id="paint9_linear_214_761" x1="39.7248" y1="27.2565" x2="25.7235" y2="33.4659" gradientUnits="userSpaceOnUse">
<stop stop-color="#706EE7"/>
<stop offset="0.5" stop-color="#726CE4"/>
<stop offset="1" stop-color="#8F57BD"/>
</linearGradient>
<clipPath id="clip0_214_761">
<rect width="14.6141" height="14.6141" fill="white" transform="translate(60.3799 1) rotate(17.44)"/>
</clipPath>
<clipPath id="clip1_214_761">
<rect width="9.67946" height="9.67946" fill="white" transform="translate(63 23.8367) rotate(-17.0411)"/>
</clipPath>
</defs>
</svg>
