<svg width="75" height="75" viewBox="0 0 75 75" fill="none" xmlns="http://www.w3.org/2000/svg">
<rect x="3" y="12" width="68" height="50.7733" rx="8" fill="url(#paint0_linear_214_765)"/>
<g filter="url(#filter0_d_214_765)">
<path d="M27.8385 45.3022L23.422 43.0465C23.1207 42.8929 22.9308 42.5822 22.9308 42.2445V40.8927C25.1971 39.9161 26.4996 38.0192 27.1339 35.6462C28.0894 35.3496 28.7928 34.4656 28.7928 33.4163V32.2439C28.7928 31.3458 28.2758 30.5708 27.529 30.1769C27.012 25.7674 24.0973 23.983 19.4135 23.983C19.192 23.983 18.9739 23.9912 18.7605 24.0088C17.1684 24.1354 15.5575 23.8365 14.2326 22.9431C13.6816 22.5726 13.2185 22.1775 12.8926 21.7637C12.7437 21.5749 12.4471 21.6956 12.474 21.9336C12.5209 22.344 12.5913 22.8223 12.6944 23.3452C13.0813 25.2914 12.8504 25.0077 12.0977 26.8437C11.6815 27.859 11.413 28.9857 11.2887 30.1792C10.5477 30.5767 10.0342 31.3493 10.0342 32.2439V33.4163C10.0342 34.4656 10.7377 35.3496 11.6932 35.6462C12.3275 38.018 13.6289 39.9161 15.8963 40.8927V42.2352C15.8963 42.5787 15.7017 42.8917 15.3933 43.0441L10.8666 45.2729C9.63092 45.947 8.86182 47.2414 8.86182 48.6494V49.7234C8.86182 49.7234 8.86182 50.0388 8.86182 50.2029C8.86182 51.5277 13.5855 52.1749 19.4135 52.1749C25.2416 52.1749 29.9653 51.5277 29.9653 50.2029C29.9653 50.0388 29.9653 49.7234 29.9653 49.7234V48.7432C29.9653 47.2871 29.1422 45.9541 27.8385 45.3022Z" fill="#F1E0FF"/>
</g>
<path d="M35.2647 46.3125H34.0923C33.444 46.3125 32.9199 46.8366 32.9199 47.4849C32.9199 48.1333 33.444 48.6573 34.0923 48.6573H35.2647C35.9131 48.6573 36.4372 48.1333 36.4372 47.4849C36.4372 46.8366 35.9131 46.3125 35.2647 46.3125Z" fill="#B78EFE"/>
<path d="M42.299 46.3125H39.9542C39.3058 46.3125 38.7817 46.8366 38.7817 47.4849C38.7817 48.1333 39.3058 48.6573 39.9542 48.6573H42.299C42.9473 48.6573 43.4714 48.1333 43.4714 47.4849C43.4714 46.8366 42.9473 46.3125 42.299 46.3125Z" fill="#B78EFE"/>
<path d="M48.1612 46.3125H46.9888C46.3405 46.3125 45.8164 46.8366 45.8164 47.4849C45.8164 48.1333 46.3405 48.6573 46.9888 48.6573H48.1612C48.8096 48.6573 49.3336 48.1333 49.3336 47.4849C49.3336 46.8366 48.8096 46.3125 48.1612 46.3125Z" fill="#B78EFE"/>
<path d="M62.574 46.3125H52.8506C52.2023 46.3125 51.6782 46.8366 51.6782 47.4849C51.6782 48.1333 52.2023 48.6573 52.8506 48.6573H62.574C63.2224 48.6573 63.7465 48.1333 63.7465 47.4849C63.7465 46.8366 63.2224 46.3125 62.574 46.3125Z" fill="#B78EFE"/>
<path d="M34.0923 37.0113H47.5211C48.1694 37.0113 48.6935 36.4873 48.6935 35.8389C48.6935 35.1906 48.1694 34.6665 47.5211 34.6665H34.0923C33.444 34.6665 32.9199 35.1906 32.9199 35.8389C32.9199 36.4873 33.444 37.0113 34.0923 37.0113Z" fill="#B78EFE"/>
<path d="M52.2256 37.0113H62.3866C63.0349 37.0113 63.559 36.4873 63.559 35.8389C63.559 35.1906 63.0349 34.6665 62.3866 34.6665H52.2256C51.5773 34.6665 51.0532 35.1906 51.0532 35.8389C51.0532 36.4873 51.5773 37.0113 52.2256 37.0113Z" fill="#B78EFE"/>
<path d="M62.5742 40.4504L34.0923 40.4505C33.444 40.4505 32.9199 40.9745 32.9199 41.6229C32.9199 42.2712 33.444 42.7953 34.0923 42.7953L62.5742 42.7953C63.2225 42.7953 63.7466 42.2712 63.7466 41.6229C63.7466 40.9745 63.2225 40.4504 62.5742 40.4504Z" fill="#B78EFE"/>
<g clip-path="url(#clip0_214_765)">
<g filter="url(#filter1_d_214_765)">
<path d="M35.6864 24.5847L36.5412 26.3169L38.4529 26.5947L37.0697 27.943L37.3961 29.8469L35.6864 28.948L33.9766 29.8469L34.3032 27.943L32.9199 26.5947L34.8315 26.3169L35.6864 24.5847Z" fill="#FAC917"/>
</g>
</g>
<g clip-path="url(#clip1_214_765)">
<g filter="url(#filter2_d_214_765)">
<path d="M42.0097 24.5847L42.8644 26.3169L44.7762 26.5947L43.3929 27.943L43.7193 29.8469L42.0097 28.948L40.2999 29.8469L40.6264 27.943L39.2432 26.5947L41.1548 26.3169L42.0097 24.5847Z" fill="#FAC917"/>
</g>
</g>
<g clip-path="url(#clip2_214_765)">
<g filter="url(#filter3_d_214_765)">
<path d="M48.3329 24.5847L49.1877 26.3169L51.0994 26.5947L49.7161 27.943L50.0426 29.8469L48.3329 28.948L46.6231 29.8469L46.9497 27.943L45.5664 26.5947L47.478 26.3169L48.3329 24.5847Z" fill="#FAC917"/>
</g>
</g>
<g clip-path="url(#clip3_214_765)">
<g filter="url(#filter4_d_214_765)">
<path d="M54.6566 24.5847L55.5114 26.3169L57.4231 26.5947L56.0399 27.943L56.3663 29.8469L54.6566 28.948L52.9468 29.8469L53.2734 27.943L51.8901 26.5947L53.8017 26.3169L54.6566 24.5847Z" fill="#FAC917"/>
</g>
</g>
<g clip-path="url(#clip4_214_765)">
<g filter="url(#filter5_d_214_765)">
<path d="M60.9804 24.5847L61.8352 26.3169L63.7469 26.5947L62.3636 27.943L62.69 29.8469L60.9804 28.948L59.2706 29.8469L59.5971 27.943L58.2139 26.5947L60.1255 26.3169L60.9804 24.5847Z" fill="#FAC917"/>
</g>
</g>
<defs>
<filter id="filter0_d_214_765" x="7.86182" y="19.6709" width="25.1035" height="34.5039" filterUnits="userSpaceOnUse" color-interpolation-filters="sRGB">
<feFlood flood-opacity="0" result="BackgroundImageFix"/>
<feColorMatrix in="SourceAlpha" type="matrix" values="0 0 0 0 0 0 0 0 0 0 0 0 0 0 0 0 0 0 127 0" result="hardAlpha"/>
<feOffset dx="1"/>
<feGaussianBlur stdDeviation="1"/>
<feComposite in2="hardAlpha" operator="out"/>
<feColorMatrix type="matrix" values="0 0 0 0 0 0 0 0 0 0 0 0 0 0 0 0 0 0 0.25 0"/>
<feBlend mode="normal" in2="BackgroundImageFix" result="effect1_dropShadow_214_765"/>
<feBlend mode="normal" in="SourceGraphic" in2="effect1_dropShadow_214_765" result="shape"/>
</filter>
<filter id="filter1_d_214_765" x="30.9199" y="22.5847" width="9.5332" height="9.26221" filterUnits="userSpaceOnUse" color-interpolation-filters="sRGB">
<feFlood flood-opacity="0" result="BackgroundImageFix"/>
<feColorMatrix in="SourceAlpha" type="matrix" values="0 0 0 0 0 0 0 0 0 0 0 0 0 0 0 0 0 0 127 0" result="hardAlpha"/>
<feOffset/>
<feGaussianBlur stdDeviation="1"/>
<feComposite in2="hardAlpha" operator="out"/>
<feColorMatrix type="matrix" values="0 0 0 0 0 0 0 0 0 0 0 0 0 0 0 0 0 0 0.25 0"/>
<feBlend mode="normal" in2="BackgroundImageFix" result="effect1_dropShadow_214_765"/>
<feBlend mode="normal" in="SourceGraphic" in2="effect1_dropShadow_214_765" result="shape"/>
</filter>
<filter id="filter2_d_214_765" x="37.2432" y="22.5847" width="9.5332" height="9.26221" filterUnits="userSpaceOnUse" color-interpolation-filters="sRGB">
<feFlood flood-opacity="0" result="BackgroundImageFix"/>
<feColorMatrix in="SourceAlpha" type="matrix" values="0 0 0 0 0 0 0 0 0 0 0 0 0 0 0 0 0 0 127 0" result="hardAlpha"/>
<feOffset/>
<feGaussianBlur stdDeviation="1"/>
<feComposite in2="hardAlpha" operator="out"/>
<feColorMatrix type="matrix" values="0 0 0 0 0 0 0 0 0 0 0 0 0 0 0 0 0 0 0.25 0"/>
<feBlend mode="normal" in2="BackgroundImageFix" result="effect1_dropShadow_214_765"/>
<feBlend mode="normal" in="SourceGraphic" in2="effect1_dropShadow_214_765" result="shape"/>
</filter>
<filter id="filter3_d_214_765" x="43.5664" y="22.5847" width="9.5332" height="9.26221" filterUnits="userSpaceOnUse" color-interpolation-filters="sRGB">
<feFlood flood-opacity="0" result="BackgroundImageFix"/>
<feColorMatrix in="SourceAlpha" type="matrix" values="0 0 0 0 0 0 0 0 0 0 0 0 0 0 0 0 0 0 127 0" result="hardAlpha"/>
<feOffset/>
<feGaussianBlur stdDeviation="1"/>
<feComposite in2="hardAlpha" operator="out"/>
<feColorMatrix type="matrix" values="0 0 0 0 0 0 0 0 0 0 0 0 0 0 0 0 0 0 0.25 0"/>
<feBlend mode="normal" in2="BackgroundImageFix" result="effect1_dropShadow_214_765"/>
<feBlend mode="normal" in="SourceGraphic" in2="effect1_dropShadow_214_765" result="shape"/>
</filter>
<filter id="filter4_d_214_765" x="49.8901" y="22.5847" width="9.5332" height="9.26221" filterUnits="userSpaceOnUse" color-interpolation-filters="sRGB">
<feFlood flood-opacity="0" result="BackgroundImageFix"/>
<feColorMatrix in="SourceAlpha" type="matrix" values="0 0 0 0 0 0 0 0 0 0 0 0 0 0 0 0 0 0 127 0" result="hardAlpha"/>
<feOffset/>
<feGaussianBlur stdDeviation="1"/>
<feComposite in2="hardAlpha" operator="out"/>
<feColorMatrix type="matrix" values="0 0 0 0 0 0 0 0 0 0 0 0 0 0 0 0 0 0 0.25 0"/>
<feBlend mode="normal" in2="BackgroundImageFix" result="effect1_dropShadow_214_765"/>
<feBlend mode="normal" in="SourceGraphic" in2="effect1_dropShadow_214_765" result="shape"/>
</filter>
<filter id="filter5_d_214_765" x="56.2139" y="22.5847" width="9.5332" height="9.26221" filterUnits="userSpaceOnUse" color-interpolation-filters="sRGB">
<feFlood flood-opacity="0" result="BackgroundImageFix"/>
<feColorMatrix in="SourceAlpha" type="matrix" values="0 0 0 0 0 0 0 0 0 0 0 0 0 0 0 0 0 0 127 0" result="hardAlpha"/>
<feOffset/>
<feGaussianBlur stdDeviation="1"/>
<feComposite in2="hardAlpha" operator="out"/>
<feColorMatrix type="matrix" values="0 0 0 0 0 0 0 0 0 0 0 0 0 0 0 0 0 0 0.25 0"/>
<feBlend mode="normal" in2="BackgroundImageFix" result="effect1_dropShadow_214_765"/>
<feBlend mode="normal" in="SourceGraphic" in2="effect1_dropShadow_214_765" result="shape"/>
</filter>
<linearGradient id="paint0_linear_214_765" x1="71.2005" y1="11.9596" x2="36.9378" y2="75.0063" gradientUnits="userSpaceOnUse">
<stop offset="0.147075" stop-color="#946DD5"/>
<stop offset="0.88425" stop-color="#5E35B5"/>
</linearGradient>
<clipPath id="clip0_214_765">
<rect width="5.53299" height="5.53299" fill="white" transform="translate(32.9199 24.4492)"/>
</clipPath>
<clipPath id="clip1_214_765">
<rect width="5.53299" height="5.53299" fill="white" transform="translate(39.2432 24.4492)"/>
</clipPath>
<clipPath id="clip2_214_765">
<rect width="5.53299" height="5.53299" fill="white" transform="translate(45.5664 24.4492)"/>
</clipPath>
<clipPath id="clip3_214_765">
<rect width="5.53299" height="5.53299" fill="white" transform="translate(51.8901 24.4492)"/>
</clipPath>
<clipPath id="clip4_214_765">
<rect width="5.53299" height="5.53299" fill="white" transform="translate(58.2139 24.4492)"/>
</clipPath>
</defs>
</svg>
