<svg width="463" height="402" viewBox="0 0 463 402" fill="none" xmlns="http://www.w3.org/2000/svg">
<g filter="url(#filter0_f_129_31833)">
<path d="M320 207C320 255.601 280.601 295 232 295C183.399 295 144 255.601 144 207C144 158.399 183.399 119 232 119C280.601 119 320 158.399 320 207Z" fill="url(#paint0_linear_129_31833)"/>
</g>
<path fill-rule="evenodd" clip-rule="evenodd" d="M158.758 314.723C152.043 325.179 140.471 331.5 128.045 331.5H7V328.5H128.045C139.45 328.5 150.071 322.698 156.233 313.102L292.266 101.277C298.981 90.8214 310.553 84.5 322.978 84.5H456V87.5H322.978C311.574 87.5 300.953 93.3018 294.79 102.898L158.758 314.723Z" fill="#5051BE"/>
<path fill-rule="evenodd" clip-rule="evenodd" d="M304.242 314.723C310.957 325.179 322.529 331.5 334.955 331.5H456V328.5H334.955C323.55 328.5 312.929 322.698 306.767 313.102L170.734 101.277C164.019 90.8214 152.447 84.5 140.022 84.5H7V87.5H140.022C151.426 87.5 162.047 93.3018 168.21 102.898L304.242 314.723Z" fill="#5051BE"/>
<path fill-rule="evenodd" clip-rule="evenodd" d="M231 395L231 7L234 7L234 395L231 395Z" fill="#5051BE"/>
<g filter="url(#filter1_f_129_31833)">
<path fill-rule="evenodd" clip-rule="evenodd" d="M158.758 314.723C152.043 325.179 140.471 331.5 128.045 331.5H7V328.5H128.045C139.45 328.5 150.071 322.698 156.233 313.102L292.266 101.277C298.981 90.8214 310.553 84.5 322.978 84.5H456V87.5H322.978C311.574 87.5 300.953 93.3018 294.79 102.898L158.758 314.723Z" fill="url(#paint1_linear_129_31833)"/>
<path fill-rule="evenodd" clip-rule="evenodd" d="M304.242 314.723C310.957 325.179 322.529 331.5 334.955 331.5H456V328.5H334.955C323.55 328.5 312.929 322.698 306.767 313.102L170.734 101.277C164.019 90.8214 152.447 84.5 140.022 84.5H7V87.5H140.022C151.426 87.5 162.047 93.3018 168.21 102.898L304.242 314.723Z" fill="url(#paint2_linear_129_31833)"/>
<path fill-rule="evenodd" clip-rule="evenodd" d="M231 395L231 7L234 7L234 395H231Z" fill="url(#paint3_linear_129_31833)"/>
</g>
<path d="M322 207C322 256.706 281.706 297 232 297C182.294 297 142 256.706 142 207C142 157.294 182.294 117 232 117C281.706 117 322 157.294 322 207Z" fill="#392B55"/>
<path fill-rule="evenodd" clip-rule="evenodd" d="M270.293 175.415L232.514 169.462V162.053L270.293 169.008V175.415Z" fill="#CDBAFF"/>
<path fill-rule="evenodd" clip-rule="evenodd" d="M270.293 187.161L232.514 182.46V175.831L270.293 181.298V187.161Z" fill="#CDBAFF"/>
<path fill-rule="evenodd" clip-rule="evenodd" d="M270.293 199.059L232.514 196.592V189.606L270.293 193.072V199.059Z" fill="#CDBAFF"/>
<path fill-rule="evenodd" clip-rule="evenodd" d="M232.514 210.6V203.387L270.293 204.914V210.6H232.514Z" fill="#CDBAFF"/>
<path fill-rule="evenodd" clip-rule="evenodd" d="M192.4 187.161L215.754 184.255L215.753 177.918L192.4 181.298V187.161Z" fill="#8D78C6"/>
<path fill-rule="evenodd" clip-rule="evenodd" d="M192.4 199.059L215.753 197.534L215.754 190.929L192.4 193.072L192.4 199.059Z" fill="#8D78C6"/>
<path fill-rule="evenodd" clip-rule="evenodd" d="M215.754 210.6V203.97L192.4 204.914V210.6H215.754Z" fill="#8D78C6"/>
<path fill-rule="evenodd" clip-rule="evenodd" d="M202.916 234.703H200.88V220.335H194.573V234.703H192.548V218.59H202.916V234.703ZM214.24 227.27H208.54V232.958H215.18V234.703H206.516V218.59H215.071V220.335H208.54V225.525H214.24V227.27ZM219.788 228.403V234.703H217.764V218.59H222.901C224.396 218.59 225.575 219.039 226.428 219.934C227.286 220.833 227.713 222.027 227.713 223.519C227.713 225.068 227.305 226.265 226.489 227.1C225.673 227.938 224.525 228.372 223.044 228.403H219.788ZM219.788 226.658H222.901C223.8 226.658 224.491 226.389 224.97 225.849C225.446 225.309 225.688 224.539 225.688 223.534C225.688 222.567 225.443 221.793 224.948 221.211C224.453 220.626 223.773 220.335 222.912 220.335H219.788V226.658ZM230.326 234.703V218.59H234.919C236.385 218.59 237.491 218.949 238.232 219.666C238.976 220.38 239.346 221.457 239.346 222.892C239.346 223.644 239.157 224.308 238.779 224.886C238.406 225.464 237.896 225.91 237.254 226.227C237.99 226.446 238.575 226.899 239.006 227.587C239.44 228.271 239.656 229.098 239.656 230.061C239.656 231.507 239.259 232.641 238.466 233.464C237.673 234.291 236.54 234.703 235.074 234.703H230.326ZM232.351 227.202V232.958H235.119C235.886 232.958 236.494 232.709 236.944 232.206C237.393 231.704 237.62 230.998 237.62 230.091C237.62 228.165 236.8 227.202 235.161 227.202H232.351ZM232.351 225.457H234.953C235.652 225.457 236.219 225.222 236.649 224.75C237.084 224.278 237.299 223.651 237.299 222.869C237.299 221.982 237.102 221.34 236.71 220.939C236.321 220.535 235.724 220.335 234.919 220.335H232.351V225.457ZM244.815 225.162H248.071C249.518 225.17 250.647 225.593 251.467 226.431C252.286 227.266 252.694 228.422 252.694 229.887C252.694 231.364 252.279 232.535 251.452 233.404C250.621 234.268 249.472 234.703 248.003 234.703H242.791V218.59H244.815V225.162ZM256.135 234.703H254.111V218.59H256.135V234.703ZM244.815 226.907V232.958H248.048C248.876 232.958 249.514 232.675 249.975 232.104C250.432 231.538 250.658 230.79 250.658 229.861C250.658 228.947 250.432 228.225 249.978 227.696C249.525 227.171 248.883 226.907 248.06 226.907H244.815ZM268.203 218.59H270.227V234.703H268.203V222.288L261.925 234.703H259.89V218.59H261.925V231.005L268.203 218.59ZM268.414 214.556C268.414 215.455 268.108 216.18 267.5 216.728C266.892 217.275 266.092 217.547 265.106 217.547C264.116 217.547 263.315 217.272 262.704 216.72C262.092 216.173 261.786 215.447 261.786 214.556H263.455C263.455 215.073 263.595 215.478 263.874 215.772C264.158 216.063 264.566 216.21 265.106 216.21C265.619 216.21 266.024 216.067 266.314 215.776C266.609 215.489 266.753 215.081 266.753 214.556H268.414Z" fill="#EAE2FF"/>
<path fill-rule="evenodd" clip-rule="evenodd" d="M200.194 248.079H201.433L201.42 251.817H200.093V249.221H193.865V251.817H192.532L192.525 248.079H193.299C193.638 247.648 193.914 247.003 194.13 246.138C194.345 245.275 194.481 244.308 194.537 243.243L194.74 238.674H200.194V248.079ZM194.713 248.079H198.861V239.816H196.031L195.877 243.221C195.821 244.336 195.687 245.297 195.479 246.106C195.272 246.914 195.017 247.572 194.713 248.079ZM208.09 246.462H204.528L203.71 249.221H202.347L205.744 238.674H206.881L210.286 249.221H208.924L208.09 246.462ZM204.874 245.32H207.752L206.31 240.528L204.874 245.32ZM216.948 239.816H214.175V249.221H212.85V239.816H210.083V238.674H216.948V239.816ZM222.852 246.462H219.29L218.471 249.221H217.109L220.506 238.674H221.643L225.048 249.221H223.685L222.852 246.462ZM219.636 245.32H222.514L221.072 240.528L219.636 245.32ZM228.677 245.29H225.685V244.192H228.677V245.29ZM230.225 238.674H231.557V248.079H235.678V238.674H237.006V248.049H237.96L237.832 251.757H236.643V249.221H230.225V238.674ZM244.697 244.355H240.967V248.079H245.313V249.221H239.641V238.674H245.241V239.816H240.967V243.213H244.697V244.355ZM253.909 249.221H252.576V244.355H248.331V249.221H247.006V238.674H248.331V243.213H252.576V238.674H253.909V249.221ZM262.159 239.816H259.385V249.221H258.06V239.816H255.293V238.674H262.159V239.816ZM265.039 245.097V249.221H263.714V238.674H267.076C268.055 238.674 268.826 238.968 269.385 239.554C269.946 240.143 270.226 240.924 270.226 241.9C270.226 242.914 269.959 243.698 269.425 244.244C268.891 244.793 268.139 245.077 267.17 245.097H265.039ZM265.039 243.955H267.076C267.665 243.955 268.117 243.779 268.431 243.426C268.742 243.072 268.901 242.568 268.901 241.91C268.901 241.277 268.74 240.771 268.416 240.39C268.092 240.007 267.647 239.816 267.084 239.816H265.039V243.955Z" fill="#EAE2FF"/>
<path fill-rule="evenodd" clip-rule="evenodd" d="M192.4 169.008L230.179 162.053V210.6H222.966V170.598L192.4 175.415V169.008Z" fill="#8D78C6"/>
<defs>
<filter id="filter0_f_129_31833" x="113" y="88" width="238" height="238" filterUnits="userSpaceOnUse" color-interpolation-filters="sRGB">
<feFlood flood-opacity="0" result="BackgroundImageFix"/>
<feBlend mode="normal" in="SourceGraphic" in2="BackgroundImageFix" result="shape"/>
<feGaussianBlur stdDeviation="15.5" result="effect1_foregroundBlur_129_31833"/>
</filter>
<filter id="filter1_f_129_31833" x="0" y="0" width="463" height="402" filterUnits="userSpaceOnUse" color-interpolation-filters="sRGB">
<feFlood flood-opacity="0" result="BackgroundImageFix"/>
<feBlend mode="normal" in="SourceGraphic" in2="BackgroundImageFix" result="shape"/>
<feGaussianBlur stdDeviation="3.5" result="effect1_foregroundBlur_129_31833"/>
</filter>
<linearGradient id="paint0_linear_129_31833" x1="283.44" y1="3.49999" x2="18.4071" y2="121.04" gradientUnits="userSpaceOnUse">
<stop stop-color="#706EE7"/>
<stop offset="0.5" stop-color="#726CE4"/>
<stop offset="1" stop-color="#8F57BD"/>
</linearGradient>
<linearGradient id="paint1_linear_129_31833" x1="100.271" y1="493.594" x2="590.664" y2="98.2435" gradientUnits="userSpaceOnUse">
<stop stop-color="#706EE7"/>
<stop offset="0.5" stop-color="#726CE4"/>
<stop offset="1" stop-color="#8F57BD"/>
</linearGradient>
<linearGradient id="paint2_linear_129_31833" x1="362.729" y1="493.594" x2="-127.664" y2="98.2435" gradientUnits="userSpaceOnUse">
<stop stop-color="#706EE7"/>
<stop offset="0.5" stop-color="#726CE4"/>
<stop offset="1" stop-color="#8F57BD"/>
</linearGradient>
<linearGradient id="paint3_linear_129_31833" x1="233.377" y1="-247.625" x2="227.971" y2="-247.606" gradientUnits="userSpaceOnUse">
<stop stop-color="#706EE7"/>
<stop offset="0.5" stop-color="#726CE4"/>
<stop offset="1" stop-color="#8F57BD"/>
</linearGradient>
</defs>
</svg>
