<svg width="75" height="75" viewBox="0 0 75 75" fill="none" xmlns="http://www.w3.org/2000/svg">
<path d="M66.1582 30.8655C65.4518 27.6855 64.1953 24.6625 62.4681 21.9144L64.1468 19.0896C64.6141 18.3034 64.4884 17.3003 63.8417 16.6536L58.3463 11.1582C57.6996 10.5115 56.6967 10.3859 55.9104 10.8531L53.085 12.5319C50.3375 10.8047 47.3145 9.54823 44.1345 8.8418L43.3282 5.5273C43.1102 4.63095 42.3074 4 41.3849 4H33.6151C32.6926 4 31.8898 4.63095 31.6718 5.5273L30.8655 8.8418C27.6855 9.54823 24.6625 10.8047 21.915 12.5319L19.0896 10.8531C18.3033 10.3859 17.3004 10.5115 16.6537 11.1582L11.1583 16.6536C10.5116 17.3003 10.3859 18.3033 10.8532 19.0896L12.5319 21.9144C10.8047 24.6625 9.54823 27.6855 8.8418 30.8655L5.5273 31.6718C4.63095 31.8898 4 32.6926 4 33.6151V41.3849C4 42.3074 4.63095 43.1102 5.5273 43.3282L8.8418 44.1345C9.54823 47.3145 10.8047 50.337 12.5319 53.085L10.8532 55.91C10.3859 56.6962 10.5115 57.6991 11.1582 58.3459L16.6537 63.8417C17.3004 64.4884 18.3034 64.6141 19.0896 64.1469L21.915 62.4681C24.6625 64.1953 27.6855 65.4518 30.8655 66.1582L31.6718 69.4727C31.8898 70.3691 32.6926 71 33.6151 71H41.3849C42.3074 71 43.1102 70.3691 43.3282 69.4727L44.1345 66.1582C47.3145 65.4518 50.3375 64.1953 53.085 62.4681L55.9104 64.1469C56.6966 64.6141 57.6996 64.4884 58.3463 63.8417L63.8418 58.3459C64.4885 57.6991 64.6141 56.6962 64.1468 55.91L62.4681 53.085C64.1953 50.337 65.4518 47.3145 66.1582 44.1345L69.4727 43.3282C70.3691 43.1102 71 42.3074 71 41.3849V33.6151C71 32.6926 70.3691 31.8898 69.4727 31.6718L66.1582 30.8655ZM37.5 59.0918C25.6046 59.0918 15.9082 49.3949 15.9082 37.5C15.9082 25.6046 25.6046 15.9082 37.5 15.9082C49.3954 15.9082 59.0918 25.6046 59.0918 37.5C59.0918 49.3949 49.3954 59.0918 37.5 59.0918Z" fill="url(#paint0_linear_214_764)"/>
<path d="M71 32.0433V42.9567L66.1582 44.1345C65.4518 47.3145 64.1953 50.337 62.4681 53.085L64.9411 57.2465L57.247 64.9411L53.085 62.4681C50.3375 64.1953 47.3145 65.4518 44.1345 66.1582L42.9567 71H37.5V59.0918C49.3954 59.0918 59.0918 49.3949 59.0918 37.5C59.0918 25.6046 49.3954 15.9082 37.5 15.9082V4H42.9567L44.1345 8.8418C47.3145 9.54823 50.3375 10.8047 53.085 12.5319L57.247 10.0589L64.9411 17.753L62.4681 21.9144C64.1953 24.6625 65.4518 27.6855 66.1582 30.8655L71 32.0433Z" fill="white" fill-opacity="0.13"/>
<path d="M32.2778 24C32.0759 24 31.8939 24.1214 31.8162 24.3077L25.2885 39.9744C25.1512 40.3037 25.3932 40.6667 25.75 40.6667H36.1111L30.5556 54.5556L49.1464 35.9647C49.4614 35.6497 49.2383 35.1111 48.7929 35.1111H37.5L45.2333 24.8C45.4805 24.4704 45.2454 24 44.8333 24H32.2778Z" fill="#F1DA0F"/>
<path d="M32.2778 24C32.0759 24 31.8939 24.1214 31.8162 24.3077L25.2885 39.9744C25.1512 40.3037 25.3932 40.6667 25.75 40.6667H29.1667L36.1111 24H32.2778ZM36.1111 40.6667L30.5556 54.5556L34.7222 50.3889L40.2778 40.6667H36.1111Z" fill="#F3B412"/>
<path d="M36.111 40.6667L35.5469 42.0556H39.5833L40.2777 40.6667H36.111Z" fill="#E6A322"/>
<defs>
<linearGradient id="paint0_linear_214_764" x1="57.0821" y1="-39.9688" x2="-43.8109" y2="4.77673" gradientUnits="userSpaceOnUse">
<stop stop-color="#706EE7"/>
<stop offset="0.24973" stop-color="#726CE4"/>
<stop offset="1" stop-color="#8F57BD"/>
</linearGradient>
</defs>
</svg>
