<svg width="75" height="75" viewBox="0 0 75 75" fill="none" xmlns="http://www.w3.org/2000/svg">
<path d="M37 70.3716C36.8602 70.3719 36.7211 70.3505 36.5875 70.308C18.6135 64.5379 9.5 46.9805 9.5 18.1216C9.49995 17.7908 9.61292 17.4706 9.81922 17.2167C10.0255 16.9627 10.3121 16.7912 10.6289 16.732C10.7774 16.7094 25.5737 13.8597 36.175 5.69454C36.413 5.51121 36.7025 5.41211 37 5.41211C37.2975 5.41211 37.587 5.51121 37.825 5.69454C48.4262 13.8597 63.2226 16.7094 63.3711 16.732C63.6879 16.7912 63.9745 16.9627 64.1808 17.2167C64.3871 17.4706 64.5 17.7908 64.5 18.1216C64.5 46.9805 55.3865 64.5379 37.4125 70.308C37.2789 70.3505 37.1398 70.3719 37 70.3716Z" fill="url(#paint0_linear_214_762)"/>
<path d="M37 70.3716C36.8602 70.3719 36.7211 70.3505 36.5875 70.308C18.6135 64.5379 9.5 46.9805 9.5 18.1216C9.49995 17.7908 9.61292 17.4706 9.81922 17.2167C10.0255 16.9627 10.3121 16.7912 10.6289 16.732C10.7774 16.7094 25.5737 13.8597 36.175 5.69454C36.413 5.51121 36.7025 5.41211 37 5.41211C37.2975 5.41211 37.587 5.51121 37.825 5.69454C48.4262 13.8597 63.2226 16.7094 63.3711 16.732C63.6879 16.7912 63.9745 16.9627 64.1808 17.2167C64.3871 17.4706 64.5 17.7908 64.5 18.1216C64.5 46.9805 55.3865 64.5379 37.4125 70.308C37.2789 70.3505 37.1398 70.3719 37 70.3716Z" fill="url(#paint1_linear_214_762)"/>
<path d="M37 70.3716C36.8602 70.3719 36.7211 70.3505 36.5875 70.308C18.6135 64.5379 9.5 46.9805 9.5 18.1216C9.49995 17.7908 9.61292 17.4706 9.81922 17.2167C10.0255 16.9627 10.3121 16.7912 10.6289 16.732C10.7774 16.7094 25.5737 13.8597 36.175 5.69454C36.413 5.51121 36.7025 5.41211 37 5.41211C37.2975 5.41211 37.587 5.51121 37.825 5.69454C48.4262 13.8597 63.2226 16.7094 63.3711 16.732C63.6879 16.7912 63.9745 16.9627 64.1808 17.2167C64.3871 17.4706 64.5 17.7908 64.5 18.1216C64.5 46.9805 55.3865 64.5379 37.4125 70.308C37.2789 70.3505 37.1398 70.3719 37 70.3716Z" fill="black" fill-opacity="0.26"/>
<path d="M37.0002 62.8872C36.826 62.8869 36.6534 62.8529 36.4914 62.7869C23.9941 57.6805 17.4546 44.8977 16.4976 23.711C16.4832 23.3923 16.5743 23.0779 16.756 22.8192C16.9378 22.5604 17.1995 22.3726 17.4986 22.2861C24.0852 20.4367 30.4025 17.6941 36.2838 14.1309C36.4996 13.9956 36.7474 13.9241 37.0002 13.9241C37.253 13.9241 37.5008 13.9956 37.7166 14.1309C43.5979 17.6941 49.9152 20.4367 56.5018 22.2861C56.8009 22.3726 57.0626 22.5604 57.2444 22.8192C57.4261 23.0779 57.5172 23.3923 57.5028 23.711C56.5403 44.8934 50.0063 57.6805 37.5089 62.7869C37.347 62.8529 37.1744 62.8869 37.0002 62.8872Z" fill="url(#paint2_linear_214_762)"/>
<path d="M36.175 5.69454C25.5737 13.8597 10.7774 16.7094 10.6289 16.732C10.3121 16.7912 10.0255 16.9627 9.81922 17.2167C9.61292 17.4706 9.49995 17.7908 9.5 18.1216C9.5 46.9805 18.6135 64.5379 36.5875 70.308C36.7211 70.3505 36.8602 70.3719 37 70.3716V5.41211C36.7025 5.41211 36.413 5.51121 36.175 5.69454Z" fill="black" fill-opacity="0.13"/>
<g clip-path="url(#clip0_214_762)">
<path d="M41.3314 31.0428V34.5026H39.8877V31.0428C39.8877 30.2563 39.5835 29.502 39.042 28.9458C38.5005 28.3897 37.766 28.0773 37.0002 28.0773C36.2344 28.0773 35.4999 28.3897 34.9584 28.9458C34.4169 29.502 34.1127 30.2563 34.1127 31.0428V34.5026H32.6689V31.0428C32.6689 29.863 33.1253 28.7316 33.9375 27.8974C34.7498 27.0631 35.8515 26.5945 37.0002 26.5945C38.1489 26.5945 39.2506 27.0631 40.0629 27.8974C40.8751 28.7316 41.3314 29.863 41.3314 31.0428Z" fill="#9AA9B7"/>
<path d="M43.4969 33.7612H30.5031C30.1044 33.7612 29.7812 34.0932 29.7812 34.5026V45.6234C29.7812 46.0328 30.1044 46.3648 30.5031 46.3648H43.4969C43.8956 46.3648 44.2187 46.0328 44.2187 45.6234V34.5026C44.2187 34.0932 43.8956 33.7612 43.4969 33.7612Z" fill="#DFE4EA"/>
<g opacity="0.1">
<path d="M29.7812 34.5026V45.6234C29.7811 45.7208 29.7997 45.8172 29.8359 45.9073C29.8721 45.9973 29.9253 46.0791 29.9924 46.1479C30.0594 46.2168 30.1391 46.2714 30.2267 46.3086C30.3143 46.3458 30.4083 46.3649 30.5031 46.3648H37V33.7612H34.1125V31.0428C34.1131 30.2565 34.4175 29.5025 34.9589 28.9465C35.5003 28.3905 36.2344 28.0779 37 28.0773V26.5945C35.8516 26.5954 34.7504 27.0644 33.9383 27.8984C33.1263 28.7324 32.6696 29.8633 32.6687 31.0428V33.7612H30.5031C30.4083 33.7611 30.3143 33.7801 30.2267 33.8173C30.1391 33.8545 30.0594 33.9091 29.9924 33.978C29.9253 34.0469 29.8721 34.1287 29.8359 34.2187C29.7997 34.3087 29.7811 34.4052 29.7812 34.5026Z" fill="#231F20"/>
</g>
</g>
<defs>
<linearGradient id="paint0_linear_214_762" x1="64.5" y1="8.23644" x2="12.7661" y2="66.8893" gradientUnits="userSpaceOnUse">
<stop stop-color="#91D3FA"/>
<stop offset="0.960825" stop-color="#1D7DB6"/>
</linearGradient>
<linearGradient id="paint1_linear_214_762" x1="64.6622" y1="5.36042" x2="13.0118" y2="65.4447" gradientUnits="userSpaceOnUse">
<stop offset="0.147075" stop-color="#946DD5"/>
<stop offset="0.88425" stop-color="#5E35B5"/>
</linearGradient>
<linearGradient id="paint2_linear_214_762" x1="57.6252" y1="13.8851" x2="18.6325" y2="58.7547" gradientUnits="userSpaceOnUse">
<stop offset="0.147075" stop-color="#946DD5"/>
<stop offset="0.88425" stop-color="#5E35B5"/>
</linearGradient>
<clipPath id="clip0_214_762">
<rect width="19.25" height="19.7703" fill="white" transform="translate(27.375 26.5945)"/>
</clipPath>
</defs>
</svg>
