<svg width="75" height="77" viewBox="0 0 75 77" fill="none" xmlns="http://www.w3.org/2000/svg">
<circle cx="37" cy="39" r="35" stroke="url(#paint0_linear_214_763)" stroke-width="2" stroke-miterlimit="3.52561" stroke-linecap="round" stroke-dasharray="14 14"/>
<path fill-rule="evenodd" clip-rule="evenodd" d="M36.0001 71.1726L36.0001 56.1726L37.8751 56.1726L37.8751 71.1726L36.0001 71.1726Z" fill="#938CED"/>
<g filter="url(#filter0_d_214_763)">
<path d="M57.2007 60.5773H17.7993C16.2538 60.5773 15 59.3235 15 57.778V48.6352C15 47.0897 16.2538 45.8359 17.7993 45.8359H57.1999C58.7462 45.8359 59.9992 47.0897 59.9992 48.6352V57.7772C60 59.3235 58.7462 60.5773 57.2007 60.5773Z" fill="url(#paint1_linear_214_763)"/>
</g>
<path d="M22.3698 55.922C23.8696 55.922 25.0853 54.7062 25.0853 53.2065C25.0853 51.7067 23.8696 50.491 22.3698 50.491C20.8701 50.491 19.6543 51.7067 19.6543 53.2065C19.6543 54.7062 20.8701 55.922 22.3698 55.922Z" fill="#35164F"/>
<path d="M53.0171 52.8186C53.4456 52.8186 53.7929 52.4712 53.7929 52.0427C53.7929 51.6142 53.4456 51.2668 53.0171 51.2668C52.5886 51.2668 52.2412 51.6142 52.2412 52.0427C52.2412 52.4712 52.5886 52.8186 53.0171 52.8186Z" fill="#35164F"/>
<path d="M49.914 52.8186C50.3425 52.8186 50.6899 52.4712 50.6899 52.0427C50.6899 51.6142 50.3425 51.2668 49.914 51.2668C49.4855 51.2668 49.1382 51.6142 49.1382 52.0427C49.1382 52.4712 49.4855 52.8186 49.914 52.8186Z" fill="#35164F"/>
<path d="M54.5688 55.146C54.9973 55.146 55.3447 54.7986 55.3447 54.3701C55.3447 53.9416 54.9973 53.5942 54.5688 53.5942C54.1403 53.5942 53.793 53.9416 53.793 54.3701C53.793 54.7986 54.1403 55.146 54.5688 55.146Z" fill="#35164F"/>
<path d="M51.4658 55.146C51.8943 55.146 52.2417 54.7986 52.2417 54.3701C52.2417 53.9416 51.8943 53.5942 51.4658 53.5942C51.0373 53.5942 50.6899 53.9416 50.6899 54.3701C50.6899 54.7986 51.0373 55.146 51.4658 55.146Z" fill="#35164F"/>
<path d="M46.8105 52.8186C47.239 52.8186 47.5864 52.4712 47.5864 52.0427C47.5864 51.6142 47.239 51.2668 46.8105 51.2668C46.382 51.2668 46.0347 51.6142 46.0347 52.0427C46.0347 52.4712 46.382 52.8186 46.8105 52.8186Z" fill="#35164F"/>
<path d="M48.3623 55.146C48.7908 55.146 49.1381 54.7986 49.1381 54.3701C49.1381 53.9416 48.7908 53.5942 48.3623 53.5942C47.9338 53.5942 47.5864 53.9416 47.5864 54.3701C47.5864 54.7986 47.9338 55.146 48.3623 55.146Z" fill="#35164F"/>
<path d="M43.707 52.8186C44.1355 52.8186 44.4829 52.4712 44.4829 52.0427C44.4829 51.6142 44.1355 51.2668 43.707 51.2668C43.2785 51.2668 42.9312 51.6142 42.9312 52.0427C42.9312 52.4712 43.2785 52.8186 43.707 52.8186Z" fill="#35164F"/>
<path d="M45.2588 55.146C45.6873 55.146 46.0346 54.7986 46.0346 54.3701C46.0346 53.9416 45.6873 53.5942 45.2588 53.5942C44.8303 53.5942 44.4829 53.9416 44.4829 54.3701C44.4829 54.7986 44.8303 55.146 45.2588 55.146Z" fill="#35164F"/>
<path d="M40.6035 52.8186C41.032 52.8186 41.3794 52.4712 41.3794 52.0427C41.3794 51.6142 41.032 51.2668 40.6035 51.2668C40.175 51.2668 39.8276 51.6142 39.8276 52.0427C39.8276 52.4712 40.175 52.8186 40.6035 52.8186Z" fill="#35164F"/>
<path d="M42.1553 55.146C42.5838 55.146 42.9311 54.7986 42.9311 54.3701C42.9311 53.9416 42.5838 53.5942 42.1553 53.5942C41.7268 53.5942 41.3794 53.9416 41.3794 54.3701C41.3794 54.7986 41.7268 55.146 42.1553 55.146Z" fill="#35164F"/>
<path d="M57.2007 45.8356H17.7993C16.2538 45.8356 15 44.5818 15 43.0363V33.8935C15 32.348 16.2538 31.0942 17.7993 31.0942H57.1999C58.7462 31.0942 59.9992 32.348 59.9992 33.8935V43.0355C60 44.5818 58.7462 45.8356 57.2007 45.8356Z" fill="url(#paint2_linear_214_763)"/>
<path d="M22.3698 41.1803C23.8696 41.1803 25.0853 39.9645 25.0853 38.4648C25.0853 36.965 23.8696 35.7493 22.3698 35.7493C20.8701 35.7493 19.6543 36.965 19.6543 38.4648C19.6543 39.9645 20.8701 41.1803 22.3698 41.1803Z" fill="#5F2093"/>
<path d="M53.0171 38.0769C53.4456 38.0769 53.7929 37.7295 53.7929 37.301C53.7929 36.8725 53.4456 36.5251 53.0171 36.5251C52.5886 36.5251 52.2412 36.8725 52.2412 37.301C52.2412 37.7295 52.5886 38.0769 53.0171 38.0769Z" fill="#35164F"/>
<path d="M49.914 38.0769C50.3425 38.0769 50.6899 37.7295 50.6899 37.301C50.6899 36.8725 50.3425 36.5251 49.914 36.5251C49.4855 36.5251 49.1382 36.8725 49.1382 37.301C49.1382 37.7295 49.4855 38.0769 49.914 38.0769Z" fill="#35164F"/>
<path d="M54.5688 40.4048C54.9973 40.4048 55.3447 40.0574 55.3447 39.6289C55.3447 39.2004 54.9973 38.853 54.5688 38.853C54.1403 38.853 53.793 39.2004 53.793 39.6289C53.793 40.0574 54.1403 40.4048 54.5688 40.4048Z" fill="#35164F"/>
<path d="M51.4658 40.4048C51.8943 40.4048 52.2417 40.0574 52.2417 39.6289C52.2417 39.2004 51.8943 38.853 51.4658 38.853C51.0373 38.853 50.6899 39.2004 50.6899 39.6289C50.6899 40.0574 51.0373 40.4048 51.4658 40.4048Z" fill="#35164F"/>
<path d="M46.8105 38.0769C47.239 38.0769 47.5864 37.7295 47.5864 37.301C47.5864 36.8725 47.239 36.5251 46.8105 36.5251C46.382 36.5251 46.0347 36.8725 46.0347 37.301C46.0347 37.7295 46.382 38.0769 46.8105 38.0769Z" fill="#35164F"/>
<path d="M48.3623 40.4048C48.7908 40.4048 49.1381 40.0574 49.1381 39.6289C49.1381 39.2004 48.7908 38.853 48.3623 38.853C47.9338 38.853 47.5864 39.2004 47.5864 39.6289C47.5864 40.0574 47.9338 40.4048 48.3623 40.4048Z" fill="#35164F"/>
<path d="M43.707 38.0769C44.1355 38.0769 44.4829 37.7295 44.4829 37.301C44.4829 36.8725 44.1355 36.5251 43.707 36.5251C43.2785 36.5251 42.9312 36.8725 42.9312 37.301C42.9312 37.7295 43.2785 38.0769 43.707 38.0769Z" fill="#35164F"/>
<path d="M45.2588 40.4048C45.6873 40.4048 46.0346 40.0574 46.0346 39.6289C46.0346 39.2004 45.6873 38.853 45.2588 38.853C44.8303 38.853 44.4829 39.2004 44.4829 39.6289C44.4829 40.0574 44.8303 40.4048 45.2588 40.4048Z" fill="#35164F"/>
<path d="M40.6035 38.0769C41.032 38.0769 41.3794 37.7295 41.3794 37.301C41.3794 36.8725 41.032 36.5251 40.6035 36.5251C40.175 36.5251 39.8276 36.8725 39.8276 37.301C39.8276 37.7295 40.175 38.0769 40.6035 38.0769Z" fill="#35164F"/>
<path d="M42.1553 40.4048C42.5838 40.4048 42.9311 40.0574 42.9311 39.6289C42.9311 39.2004 42.5838 38.853 42.1553 38.853C41.7268 38.853 41.3794 39.2004 41.3794 39.6289C41.3794 40.0574 41.7268 40.4048 42.1553 40.4048Z" fill="#35164F"/>
<path d="M57.2007 31.0944H17.7993C16.2538 31.0944 15 29.8406 15 28.2951V19.1523C15 17.6068 16.2538 16.353 17.7993 16.353H57.1999C58.7462 16.353 60 17.6068 60 19.1523V28.2943C60 29.8406 58.7462 31.0944 57.2007 31.0944Z" fill="url(#paint3_linear_214_763)"/>
<path d="M22.3698 26.4393C23.8696 26.4393 25.0853 25.2236 25.0853 23.7238C25.0853 22.2241 23.8696 21.0083 22.3698 21.0083C20.8701 21.0083 19.6543 22.2241 19.6543 23.7238C19.6543 25.2236 20.8701 26.4393 22.3698 26.4393Z" fill="#9161B8"/>
<path d="M22.3698 26.4393C23.8696 26.4393 25.0853 25.2236 25.0853 23.7238C25.0853 22.2241 23.8696 21.0083 22.3698 21.0083C20.8701 21.0083 19.6543 22.2241 19.6543 23.7238C19.6543 25.2236 20.8701 26.4393 22.3698 26.4393Z" fill="#35164F"/>
<path d="M53.0171 23.3359C53.4456 23.3359 53.7929 22.9885 53.7929 22.56C53.7929 22.1315 53.4456 21.7842 53.0171 21.7842C52.5886 21.7842 52.2412 22.1315 52.2412 22.56C52.2412 22.9885 52.5886 23.3359 53.0171 23.3359Z" fill="#9161B8"/>
<path d="M53.0171 23.3359C53.4456 23.3359 53.7929 22.9885 53.7929 22.56C53.7929 22.1315 53.4456 21.7842 53.0171 21.7842C52.5886 21.7842 52.2412 22.1315 52.2412 22.56C52.2412 22.9885 52.5886 23.3359 53.0171 23.3359Z" fill="#35164F"/>
<path d="M49.914 23.3359C50.3425 23.3359 50.6899 22.9885 50.6899 22.56C50.6899 22.1315 50.3425 21.7842 49.914 21.7842C49.4855 21.7842 49.1382 22.1315 49.1382 22.56C49.1382 22.9885 49.4855 23.3359 49.914 23.3359Z" fill="#9161B8"/>
<path d="M49.914 23.3359C50.3425 23.3359 50.6899 22.9885 50.6899 22.56C50.6899 22.1315 50.3425 21.7842 49.914 21.7842C49.4855 21.7842 49.1382 22.1315 49.1382 22.56C49.1382 22.9885 49.4855 23.3359 49.914 23.3359Z" fill="#35164F"/>
<path d="M54.5688 25.6635C54.9973 25.6635 55.3447 25.3162 55.3447 24.8877C55.3447 24.4592 54.9973 24.1118 54.5688 24.1118C54.1403 24.1118 53.793 24.4592 53.793 24.8877C53.793 25.3162 54.1403 25.6635 54.5688 25.6635Z" fill="#9161B8"/>
<path d="M54.5688 25.6635C54.9973 25.6635 55.3447 25.3162 55.3447 24.8877C55.3447 24.4592 54.9973 24.1118 54.5688 24.1118C54.1403 24.1118 53.793 24.4592 53.793 24.8877C53.793 25.3162 54.1403 25.6635 54.5688 25.6635Z" fill="#35164F"/>
<path d="M51.4658 25.6635C51.8943 25.6635 52.2417 25.3162 52.2417 24.8877C52.2417 24.4592 51.8943 24.1118 51.4658 24.1118C51.0373 24.1118 50.6899 24.4592 50.6899 24.8877C50.6899 25.3162 51.0373 25.6635 51.4658 25.6635Z" fill="#9161B8"/>
<path d="M51.4658 25.6635C51.8943 25.6635 52.2417 25.3162 52.2417 24.8877C52.2417 24.4592 51.8943 24.1118 51.4658 24.1118C51.0373 24.1118 50.6899 24.4592 50.6899 24.8877C50.6899 25.3162 51.0373 25.6635 51.4658 25.6635Z" fill="#35164F"/>
<path d="M46.8105 23.3359C47.239 23.3359 47.5864 22.9885 47.5864 22.56C47.5864 22.1315 47.239 21.7842 46.8105 21.7842C46.382 21.7842 46.0347 22.1315 46.0347 22.56C46.0347 22.9885 46.382 23.3359 46.8105 23.3359Z" fill="#9161B8"/>
<path d="M46.8105 23.3359C47.239 23.3359 47.5864 22.9885 47.5864 22.56C47.5864 22.1315 47.239 21.7842 46.8105 21.7842C46.382 21.7842 46.0347 22.1315 46.0347 22.56C46.0347 22.9885 46.382 23.3359 46.8105 23.3359Z" fill="#35164F"/>
<path d="M48.3623 25.6635C48.7908 25.6635 49.1381 25.3162 49.1381 24.8877C49.1381 24.4592 48.7908 24.1118 48.3623 24.1118C47.9338 24.1118 47.5864 24.4592 47.5864 24.8877C47.5864 25.3162 47.9338 25.6635 48.3623 25.6635Z" fill="#9161B8"/>
<path d="M48.3623 25.6635C48.7908 25.6635 49.1381 25.3162 49.1381 24.8877C49.1381 24.4592 48.7908 24.1118 48.3623 24.1118C47.9338 24.1118 47.5864 24.4592 47.5864 24.8877C47.5864 25.3162 47.9338 25.6635 48.3623 25.6635Z" fill="#35164F"/>
<path d="M43.707 23.3359C44.1355 23.3359 44.4829 22.9885 44.4829 22.56C44.4829 22.1315 44.1355 21.7842 43.707 21.7842C43.2785 21.7842 42.9312 22.1315 42.9312 22.56C42.9312 22.9885 43.2785 23.3359 43.707 23.3359Z" fill="#9161B8"/>
<path d="M43.707 23.3359C44.1355 23.3359 44.4829 22.9885 44.4829 22.56C44.4829 22.1315 44.1355 21.7842 43.707 21.7842C43.2785 21.7842 42.9312 22.1315 42.9312 22.56C42.9312 22.9885 43.2785 23.3359 43.707 23.3359Z" fill="#35164F"/>
<path d="M45.2588 25.6635C45.6873 25.6635 46.0346 25.3162 46.0346 24.8877C46.0346 24.4592 45.6873 24.1118 45.2588 24.1118C44.8303 24.1118 44.4829 24.4592 44.4829 24.8877C44.4829 25.3162 44.8303 25.6635 45.2588 25.6635Z" fill="#9161B8"/>
<path d="M45.2588 25.6635C45.6873 25.6635 46.0346 25.3162 46.0346 24.8877C46.0346 24.4592 45.6873 24.1118 45.2588 24.1118C44.8303 24.1118 44.4829 24.4592 44.4829 24.8877C44.4829 25.3162 44.8303 25.6635 45.2588 25.6635Z" fill="#35164F"/>
<path d="M40.6035 23.3357C41.032 23.3357 41.3794 22.9883 41.3794 22.5598C41.3794 22.1313 41.032 21.7839 40.6035 21.7839C40.175 21.7839 39.8276 22.1313 39.8276 22.5598C39.8276 22.9883 40.175 23.3357 40.6035 23.3357Z" fill="#9161B8"/>
<path d="M40.6035 23.3357C41.032 23.3357 41.3794 22.9883 41.3794 22.5598C41.3794 22.1313 41.032 21.7839 40.6035 21.7839C40.175 21.7839 39.8276 22.1313 39.8276 22.5598C39.8276 22.9883 40.175 23.3357 40.6035 23.3357Z" fill="#35164F"/>
<path d="M42.1553 25.6635C42.5838 25.6635 42.9311 25.3162 42.9311 24.8877C42.9311 24.4592 42.5838 24.1118 42.1553 24.1118C41.7268 24.1118 41.3794 24.4592 41.3794 24.8877C41.3794 25.3162 41.7268 25.6635 42.1553 25.6635Z" fill="#9161B8"/>
<path d="M42.1553 25.6635C42.5838 25.6635 42.9311 25.3162 42.9311 24.8877C42.9311 24.4592 42.5838 24.1118 42.1553 24.1118C41.7268 24.1118 41.3794 24.4592 41.3794 24.8877C41.3794 25.3162 41.7268 25.6635 42.1553 25.6635Z" fill="#35164F"/>
<circle cx="37" cy="74" r="3" fill="#938CED"/>
<defs>
<filter id="filter0_d_214_763" x="13" y="44.8359" width="48.999" height="18.7415" filterUnits="userSpaceOnUse" color-interpolation-filters="sRGB">
<feFlood flood-opacity="0" result="BackgroundImageFix"/>
<feColorMatrix in="SourceAlpha" type="matrix" values="0 0 0 0 0 0 0 0 0 0 0 0 0 0 0 0 0 0 127 0" result="hardAlpha"/>
<feOffset dy="1"/>
<feGaussianBlur stdDeviation="1"/>
<feComposite in2="hardAlpha" operator="out"/>
<feColorMatrix type="matrix" values="0 0 0 0 0 0 0 0 0 0 0 0 0 0 0 0 0 0 0.25 0"/>
<feBlend mode="normal" in2="BackgroundImageFix" result="effect1_dropShadow_214_763"/>
<feBlend mode="normal" in="SourceGraphic" in2="effect1_dropShadow_214_763" result="shape"/>
</filter>
<linearGradient id="paint0_linear_214_763" x1="57.4589" y1="-41.9375" x2="-47.9517" y2="4.81151" gradientUnits="userSpaceOnUse">
<stop stop-color="#706EE7"/>
<stop offset="0.5" stop-color="#726CE4"/>
<stop offset="1" stop-color="#8F57BD"/>
</linearGradient>
<linearGradient id="paint1_linear_214_763" x1="37.4996" y1="45.8359" x2="37.4996" y2="60.5773" gradientUnits="userSpaceOnUse">
<stop stop-color="#938DEE"/>
<stop offset="1" stop-color="#7670C6"/>
</linearGradient>
<linearGradient id="paint2_linear_214_763" x1="37.4996" y1="31.0942" x2="37.4996" y2="45.8356" gradientUnits="userSpaceOnUse">
<stop stop-color="#938DEE"/>
<stop offset="1" stop-color="#7670C6"/>
</linearGradient>
<linearGradient id="paint3_linear_214_763" x1="37.5" y1="16.353" x2="37.5" y2="31.0944" gradientUnits="userSpaceOnUse">
<stop stop-color="#938DEE"/>
<stop offset="1" stop-color="#7670C6"/>
</linearGradient>
</defs>
</svg>
