<svg width="75" height="75" viewBox="0 0 75 75" fill="none" xmlns="http://www.w3.org/2000/svg">
<path d="M31.8942 62.0026C47.0434 62.0026 59.3241 49.7218 59.3241 34.5727C59.3241 19.4236 47.0434 7.14282 31.8942 7.14282C16.7451 7.14282 4.46436 19.4236 4.46436 34.5727C4.46436 49.7218 16.7451 62.0026 31.8942 62.0026Z" fill="url(#paint0_linear_209_1911)"/>
<path d="M30.5706 18.6789V18.7257C30.5706 19.17 30.4467 19.6054 30.213 19.9833C29.9793 20.3611 29.6449 20.6663 29.2474 20.8647L22.8667 24.0558C22.778 24.1001 22.6921 24.1498 22.6095 24.2047L19.3439 26.3828C18.9975 26.6141 18.717 26.9314 18.5301 27.3037L18.0442 28.278C17.8776 28.61 17.7909 28.9762 17.7909 29.3476C17.7909 29.7189 17.8776 30.0852 18.0442 30.4171C18.2685 30.8665 18.3458 31.3751 18.2652 31.8709C18.1846 32.3666 17.9501 32.8245 17.5949 33.1796L17.523 33.2515C17.1458 33.6288 16.6533 33.8692 16.1237 33.9343C15.5942 33.9994 15.0581 33.8855 14.6008 33.6107L10.4302 31.1093C9.94037 30.8153 9.57199 30.3557 9.39176 29.8136L8.36513 26.7349C7.1378 26.7349 6.40058 26.1876 5.96436 25.6063V25.605C8.15987 19.2787 12.5878 13.9706 18.4178 10.676L22.2319 13.325C22.5609 13.5536 22.8273 13.8613 23.0065 14.2197L23.3788 14.9629C23.5772 15.3604 23.8824 15.6948 24.2602 15.9285C24.6381 16.1623 25.0735 16.2861 25.5178 16.2861H28.1772C28.4914 16.286 28.8027 16.3478 29.0931 16.468C29.3835 16.5882 29.6473 16.7645 29.8696 16.9867C30.0918 17.2089 30.2682 17.4727 30.3884 17.7631C30.5087 18.0534 30.5706 18.3646 30.5706 18.6789Z" fill="url(#paint1_linear_209_1911)"/>
<path d="M34.4892 42.1015V43.4535C34.4896 43.627 34.4619 43.7994 34.4074 43.9642L33.3036 47.2727C33.2249 47.5106 33.0916 47.7267 32.9144 47.9039L30.9172 49.901C30.6914 50.1263 30.5377 50.4136 30.4757 50.7265L29.4203 56.0035C29.372 56.2446 29.2691 56.4715 29.1197 56.6668C28.9704 56.8622 28.7783 57.0209 28.5583 57.1307L27.6933 57.5644C27.3901 57.7158 27.047 57.768 26.7125 57.7136C26.378 57.6593 26.069 57.5011 25.8294 57.2614L24.2251 55.6571C24.1027 55.5341 24.0005 55.3926 23.9221 55.2378L22.9033 53.2002C22.7919 52.9757 22.7338 52.7285 22.7335 52.4779V47.3263C22.7333 47.0266 22.6498 46.7328 22.4924 46.4777C22.3349 46.2226 22.1097 46.0163 21.8419 45.8817L20.5056 45.2143C20.2539 45.089 20.0395 44.8999 19.8839 44.6657L17.7809 41.5097C17.6036 41.245 17.509 40.9336 17.5093 40.615V39.489C17.5095 39.1892 17.5931 38.8953 17.7506 38.6402C17.9081 38.3852 18.1334 38.1788 18.4014 38.0443L19.6397 37.4248C19.953 37.2696 20.2068 37.0158 20.3621 36.7025L20.9816 35.4641C21.1161 35.1965 21.3223 34.9714 21.5772 34.814C21.8321 34.6566 22.1257 34.5731 22.4253 34.5728H24.6771C24.8891 34.5727 25.0991 34.6144 25.295 34.6955C25.4909 34.7766 25.6689 34.8956 25.8188 35.0456L26.1793 35.4061C26.3291 35.556 26.5071 35.675 26.703 35.7561C26.8989 35.8372 27.1089 35.879 27.3209 35.8789H27.6501C27.8621 35.8789 28.072 35.9207 28.2678 36.0018C28.4637 36.0829 28.6416 36.2019 28.7915 36.3518C28.9414 36.5017 29.0603 36.6797 29.1415 36.8755C29.2226 37.0714 29.2643 37.2813 29.2643 37.4933C29.2645 37.7931 29.3481 38.087 29.5056 38.3421C29.6631 38.5972 29.8884 38.8035 30.1564 38.938L33.5969 40.6569C33.8649 40.7914 34.0902 40.9977 34.2478 41.2528C34.4053 41.5079 34.4889 41.8017 34.4892 42.1015Z" fill="url(#paint2_linear_209_1911)"/>
<path d="M59.3234 34.5726C59.3322 41.7455 56.5223 48.6347 51.4993 53.7552L50.2976 50.7797C50.2086 50.5131 50.1632 50.2339 50.1631 49.9529V47.0754C50.1632 46.67 50.0689 46.2702 49.8874 45.9076L47.826 41.7853C47.6446 41.4228 47.5502 41.023 47.5504 40.6176V40.2362C47.5504 39.791 47.4366 39.3531 47.2198 38.9642C47.003 38.5753 46.6904 38.2483 46.3117 38.0142C45.933 37.7801 45.5007 37.6466 45.0559 37.6266C44.6111 37.6065 44.1686 37.7004 43.7703 37.8995L42.8768 38.3462C42.5143 38.5277 42.1145 38.622 41.7091 38.6219H41.5968C41.0483 38.6219 40.5137 38.4493 40.0688 38.1286C39.6239 37.8078 39.2912 37.3552 39.1178 36.8349L38.5418 35.1049C38.4528 34.8383 38.4074 34.5592 38.4072 34.2782V32.1824C38.4073 31.7523 38.5135 31.3288 38.7165 30.9496C38.9195 30.5705 39.213 30.2473 39.571 30.0088L41.9495 28.4231C42.1987 28.2573 42.4744 28.1354 42.7647 28.0626L46.8126 27.0504C47.2948 26.9302 47.8013 26.9497 48.2729 27.1065L51.0665 28.0377C51.3331 28.1267 51.6123 28.1721 51.8934 28.1723H58.5719C59.0725 30.2689 59.3247 32.4171 59.3234 34.5726Z" fill="#2ECC71"/>
<path d="M59.3234 34.5726C59.3322 41.7455 56.5223 48.6347 51.4993 53.7552L50.2976 50.7797C50.2086 50.5131 50.1632 50.2339 50.1631 49.9529V47.0754C50.1632 46.67 50.0689 46.2702 49.8874 45.9076L47.826 41.7853C47.6446 41.4228 47.5502 41.023 47.5504 40.6176V40.2362C47.5504 39.791 47.4366 39.3531 47.2198 38.9642C47.003 38.5753 46.6904 38.2483 46.3117 38.0142C45.933 37.7801 45.5007 37.6466 45.0559 37.6266C44.6111 37.6065 44.1686 37.7004 43.7703 37.8995L42.8768 38.3462C42.5143 38.5277 42.1145 38.622 41.7091 38.6219H41.5968C41.0483 38.6219 40.5137 38.4493 40.0688 38.1286C39.6239 37.8078 39.2912 37.3552 39.1178 36.8349L38.5418 35.1049C38.4528 34.8383 38.4074 34.5592 38.4072 34.2782V32.1824C38.4073 31.7523 38.5135 31.3288 38.7165 30.9496C38.9195 30.5705 39.213 30.2473 39.571 30.0088L41.9495 28.4231C42.1987 28.2573 42.4744 28.1354 42.7647 28.0626L46.8126 27.0504C47.2948 26.9302 47.8013 26.9497 48.2729 27.1065L51.0665 28.0377C51.3331 28.1267 51.6123 28.1721 51.8934 28.1723H58.5719C59.0725 30.2689 59.3247 32.4171 59.3234 34.5726Z" fill="url(#paint3_linear_209_1911)"/>
<path d="M56.6826 22.8171H52.7811C52.1932 22.817 51.6294 22.5835 51.2136 22.1679L50.9448 21.8991C50.529 21.4835 49.9652 21.2499 49.3773 21.2499H47.6843C47.3397 21.2496 46.9998 21.3297 46.6915 21.4836L44.494 22.5835C44.1857 22.7373 43.8459 22.8173 43.5013 22.8172H43.1068C42.6684 22.8172 42.2398 22.6872 41.8753 22.4437C41.5108 22.2001 41.2267 21.8539 41.0589 21.4489C40.8911 21.0438 40.8472 20.5982 40.9327 20.1682C41.0182 19.7382 41.2293 19.3432 41.5393 19.0332L43.7719 16.8006C43.9401 16.6324 44.1342 16.4922 44.3466 16.3852L46.6912 15.2135C46.9994 15.0595 47.3393 14.9795 47.6839 14.9797H51.0891C53.4004 17.2426 55.294 19.8958 56.6826 22.8171Z" fill="url(#paint4_linear_209_1911)"/>
<path opacity="0.25" d="M37.1192 55.4716C22.6915 55.4716 10.9955 43.7756 10.9955 29.3479C10.9914 25.7373 11.7379 22.1654 13.1875 18.8586C14.6372 15.5518 16.7583 12.5824 19.4164 10.1389C14.9146 12.4383 11.1358 15.937 8.49723 20.2488C5.85868 24.5606 4.46302 29.5177 4.46436 34.5727C4.46436 49.7215 16.7455 62.0026 31.8942 62.0026C36.9493 62.0039 41.9064 60.6083 46.2181 57.9697C50.5299 55.3312 54.0287 51.5524 56.328 47.0506C53.8845 49.7086 50.9152 51.8298 47.6084 53.2795C44.3017 54.7291 40.7297 55.4756 37.1192 55.4716Z" fill="#083C59"/>
<path d="M66.0046 29.292H30.6405C27.7683 29.292 25.4399 31.6204 25.4399 34.4926V57.3753C25.4399 60.2475 27.7683 62.5759 30.6405 62.5759H66.0046C68.8769 62.5759 71.2052 60.2475 71.2052 57.3753V34.4926C71.2052 31.6204 68.8769 29.292 66.0046 29.292Z" fill="url(#paint5_linear_209_1911)"/>
<path d="M44.1621 37.613H32.7208C32.4449 37.613 32.1804 37.5034 31.9853 37.3083C31.7902 37.1133 31.6807 36.8487 31.6807 36.5728C31.6807 36.297 31.7902 36.0324 31.9853 35.8374C32.1804 35.6423 32.4449 35.5327 32.7208 35.5327H44.1621C44.438 35.5327 44.7025 35.6423 44.8976 35.8374C45.0926 36.0324 45.2022 36.297 45.2022 36.5728C45.2022 36.8487 45.0926 37.1133 44.8976 37.3083C44.7025 37.5034 44.438 37.613 44.1621 37.613Z" fill="#6291BC"/>
<path d="M62.8843 42.8137C62.8843 42.5379 62.7747 42.2733 62.5796 42.0783C62.3846 41.8832 62.12 41.7736 61.8442 41.7736H32.7208C32.4449 41.7736 32.1804 41.8832 31.9853 42.0783C31.7902 42.2733 31.6807 42.5379 31.6807 42.8137C31.6807 43.0896 31.7902 43.3542 31.9853 43.5492C32.1804 43.7443 32.4449 43.8539 32.7208 43.8539H61.8442C62.12 43.8539 62.3846 43.7443 62.5796 43.5492C62.7747 43.3542 62.8843 43.0896 62.8843 42.8137Z" fill="#6291BC"/>
<path d="M51.443 48.0142C51.443 47.7383 51.3334 47.4737 51.1383 47.2787C50.9433 47.0836 50.6787 46.974 50.4028 46.974H32.7208C32.4449 46.974 32.1804 47.0836 31.9853 47.2787C31.7902 47.4737 31.6807 47.7383 31.6807 48.0142C31.6807 48.29 31.7902 48.5546 31.9853 48.7496C32.1804 48.9447 32.4449 49.0543 32.7208 49.0543H50.4028C50.6787 49.0543 50.9433 48.9447 51.1383 48.7496C51.3334 48.5546 51.443 48.29 51.443 48.0142Z" fill="#6291BC"/>
<path d="M31.6807 42.8137C31.6807 43.0896 31.7902 43.3542 31.9853 43.5492C32.1804 43.7443 32.4449 43.8539 32.7208 43.8539H45.4623L42.6019 41.7736H32.7208C32.4449 41.7736 32.1804 41.8832 31.9853 42.0783C31.7902 42.2733 31.6807 42.5379 31.6807 42.8137Z" fill="#6291BC"/>
<path d="M31.6807 36.5728C31.6807 36.8487 31.7902 37.1133 31.9853 37.3083C32.1804 37.5034 32.4449 37.613 32.7208 37.613H36.8813L34.0209 35.5327H32.7208C32.4449 35.5327 32.1804 35.6423 31.9853 35.8374C31.7902 36.0324 31.6807 36.297 31.6807 36.5728Z" fill="#6291BC"/>
<path d="M49.7528 46.974H32.7208C32.4449 46.974 32.1804 47.0836 31.9853 47.2787C31.7902 47.4737 31.6807 47.7383 31.6807 48.0142C31.6807 48.29 31.7902 48.5546 31.9853 48.7496C32.1804 48.9447 32.4449 49.0543 32.7208 49.0543H50.4028C50.6473 49.0523 50.8831 48.963 51.0677 48.8027C51.2522 48.6423 51.3735 48.4214 51.4097 48.1795L49.7528 46.974Z" fill="#6291BC"/>
<path d="M48.3226 54.255C48.5984 54.255 48.863 54.1454 49.0581 53.9503C49.2531 53.7553 49.3627 53.4907 49.3627 53.2149C49.3627 52.939 49.2531 52.6744 49.0581 52.4794C48.863 52.2843 48.5984 52.1747 48.3226 52.1747H32.7208C32.4449 52.1747 32.1804 52.2843 31.9853 52.4794C31.7902 52.6744 31.6807 52.939 31.6807 53.2149C31.6807 53.4907 31.7902 53.7553 31.9853 53.9503C32.1804 54.1454 32.4449 54.255 32.7208 54.255H48.3226Z" fill="#6291BC"/>
<path d="M62.8839 54.4524H56.6431C56.3673 54.4524 56.1027 54.562 55.9077 54.757C55.7126 54.9521 55.603 55.2167 55.603 55.4925V66.7362C55.603 66.9245 55.6541 67.1093 55.7509 67.2708C55.8476 67.4324 55.9864 67.5646 56.1525 67.6535C56.3185 67.7423 56.5055 67.7844 56.6936 67.7753C56.8817 67.7661 57.0638 67.7061 57.2204 67.6016L59.7635 65.9041L62.3066 67.5995C62.4631 67.7039 62.645 67.7639 62.8329 67.7732C63.0208 67.7824 63.2077 67.7405 63.3737 67.6519C63.5396 67.5633 63.6785 67.4314 63.7754 67.2701C63.8723 67.1089 63.9236 66.9243 63.924 66.7362V55.4925C63.924 55.2167 63.8144 54.9521 63.6193 54.757C63.4243 54.562 63.1597 54.4524 62.8839 54.4524Z" fill="#FF5852"/>
<path d="M53.8815 49.9768C53.3068 50.7484 52.8909 51.6264 52.6579 52.5598C52.4249 53.4933 52.3794 54.4637 52.5241 55.4149C52.6687 56.366 53.0006 57.2791 53.5006 58.1011C54.0005 58.9231 54.6586 59.6377 55.4367 60.2036C56.2147 60.7695 57.0974 61.1754 58.0334 61.3979C58.9694 61.6203 59.9403 61.6548 60.8898 61.4994C61.8392 61.344 62.7484 61.0018 63.5647 60.4926C64.381 59.9834 65.0882 59.3173 65.6452 58.5328L53.8815 49.9768Z" fill="#D9D461"/>
<path d="M62.8839 54.4524H56.6431C56.3673 54.4524 56.1027 54.562 55.9077 54.757C55.7126 54.9521 55.603 55.2167 55.603 55.4925V62.6309C56.8943 63.2786 58.3189 63.6159 59.7635 63.6159C61.2081 63.6159 62.6328 63.2786 63.924 62.6309V55.4925C63.924 55.2167 63.8144 54.9521 63.6193 54.757C63.4243 54.562 63.1597 54.4524 62.8839 54.4524Z" fill="#D6514D"/>
<g filter="url(#filter0_d_209_1911)">
<path d="M27.2331 30.4653C26.6726 30.9485 26.2224 31.5464 25.9131 32.2186C25.6037 32.8908 25.4424 33.6216 25.4399 34.3616V57.2443C25.4416 58.6231 25.99 59.9449 26.965 60.9198C27.9399 61.8948 29.2618 62.4432 30.6405 62.4449H55.479V58.6286L63.5777 59.2153L63.9425 62.4449H66.0046C67.2615 62.4403 68.4734 61.9764 69.4121 61.1406L27.2331 30.4653Z" fill="black" fill-opacity="0.17" shape-rendering="crispEdges"/>
</g>
<path d="M59.7642 61.5356C63.7853 61.5356 67.0451 58.2758 67.0451 54.2547C67.0451 50.2336 63.7853 46.9739 59.7642 46.9739C55.7431 46.9739 52.4834 50.2336 52.4834 54.2547C52.4834 58.2758 55.7431 61.5356 59.7642 61.5356Z" fill="#FFFA86"/>
<path d="M59.7634 58.4152C62.0612 58.4152 63.9239 56.5525 63.9239 54.2547C63.9239 51.957 62.0612 50.0943 59.7634 50.0943C57.4657 50.0943 55.6029 51.957 55.6029 54.2547C55.6029 56.5525 57.4657 58.4152 59.7634 58.4152Z" fill="#FFDB5E"/>
<defs>
<filter id="filter0_d_209_1911" x="21.4399" y="30.4653" width="51.9722" height="39.9795" filterUnits="userSpaceOnUse" color-interpolation-filters="sRGB">
<feFlood flood-opacity="0" result="BackgroundImageFix"/>
<feColorMatrix in="SourceAlpha" type="matrix" values="0 0 0 0 0 0 0 0 0 0 0 0 0 0 0 0 0 0 127 0" result="hardAlpha"/>
<feOffset dy="4"/>
<feGaussianBlur stdDeviation="2"/>
<feComposite in2="hardAlpha" operator="out"/>
<feColorMatrix type="matrix" values="0 0 0 0 0 0 0 0 0 0 0 0 0 0 0 0 0 0 0.25 0"/>
<feBlend mode="normal" in2="BackgroundImageFix" result="effect1_dropShadow_209_1911"/>
<feBlend mode="normal" in="SourceGraphic" in2="effect1_dropShadow_209_1911" result="shape"/>
</filter>
<linearGradient id="paint0_linear_209_1911" x1="47.9281" y1="-28.8589" x2="-34.6834" y2="7.77881" gradientUnits="userSpaceOnUse">
<stop stop-color="#4CC7E2"/>
<stop offset="0.5" stop-color="#5A57D8"/>
<stop offset="0.786163" stop-color="#8151A8"/>
</linearGradient>
<linearGradient id="paint1_linear_209_1911" x1="25.4591" y1="-4.59892" x2="-10.8922" y2="12.4439" gradientUnits="userSpaceOnUse">
<stop offset="0.0361633" stop-color="#003040"/>
<stop offset="0.504913" stop-color="#28277A"/>
<stop offset="0.900747" stop-color="#6E2CA4"/>
</linearGradient>
<linearGradient id="paint2_linear_209_1911" x1="30.962" y1="19.3728" x2="3.28854" y2="28.3702" gradientUnits="userSpaceOnUse">
<stop offset="0.0361633" stop-color="#003040"/>
<stop offset="0.504913" stop-color="#28277A"/>
<stop offset="0.900747" stop-color="#6E2CA4"/>
</linearGradient>
<linearGradient id="paint3_linear_209_1911" x1="54.9785" y1="9.39662" x2="21.3237" y2="21.053" gradientUnits="userSpaceOnUse">
<stop offset="0.0361633" stop-color="#003040"/>
<stop offset="0.504913" stop-color="#28277A"/>
<stop offset="0.900747" stop-color="#6E2CA4"/>
</linearGradient>
<linearGradient id="paint4_linear_209_1911" x1="53.402" y1="9.83638" x2="37.5791" y2="23.9763" gradientUnits="userSpaceOnUse">
<stop offset="0.0361633" stop-color="#003040"/>
<stop offset="0.504913" stop-color="#28277A"/>
<stop offset="0.900747" stop-color="#6E2CA4"/>
</linearGradient>
<linearGradient id="paint5_linear_209_1911" x1="75.3124" y1="25.7716" x2="27.2001" y2="69.19" gradientUnits="userSpaceOnUse">
<stop stop-color="#89C3F9"/>
<stop offset="1" stop-color="#88C3FA"/>
</linearGradient>
</defs>
</svg>
