<svg width="400" height="315" viewBox="0 0 400 315" fill="none" xmlns="http://www.w3.org/2000/svg">
<path d="M1.01606 157.935L0.907608 181.776L181.807 285.992L181.861 262.151L1.01606 157.935Z" fill="#313436"/>
<path d="M178.554 54.6421L1.01643 157.935L181.862 262.151L197.479 253.081L202.793 267.636L339.878 187.858L352.892 176.128L359.399 158.804L178.554 54.6421Z" fill="#4C5053"/>
<path d="M339.877 187.858L349.584 172.272L350.451 164.017L183.976 68.4363L24.6588 160.596L191.622 256.449L197.478 253.082L200.624 261.662L206.86 265.246L339.877 187.858Z" fill="#313436"/>
<path d="M181.861 274.805L181.807 285.992L359.344 182.645L359.399 171.458L181.861 274.805Z" fill="#313436"/>
<g style="mix-blend-mode:multiply" opacity="0.3">
<path d="M183.976 77.2338L348.662 171.566L350.451 164.017L183.976 68.436L24.6588 160.596L32.2505 164.94L183.976 77.2338Z" fill="#313436"/>
</g>
<path d="M389.765 142.131V176.888L350.831 199.643L350.777 164.886L389.765 142.131Z" fill="#C0C6C7"/>
<path d="M350.777 164.886L350.831 199.643L348.336 198.231V163.474L350.777 164.886Z" fill="#B2B9BB"/>
<path d="M389.765 142.131L350.777 164.886L348.336 163.474L387.271 140.774L389.765 142.131Z" fill="#E9ECED"/>
<path d="M100.142 95.5898L260.652 2.12671L264.177 2.50686L103.667 95.9157L100.142 95.5898Z" fill="#606466"/>
<path d="M238.419 290.716L398.93 197.308V206.431L238.365 299.894L238.419 290.716Z" fill="#45494B"/>
<path d="M127.689 226.634L288.199 133.171L398.93 197.308L238.419 290.717L127.689 226.634Z" fill="#606466"/>
<path d="M136.853 217.673L131.16 222.832L135.281 227.883L292.7 135.886V130.347L136.853 217.673Z" fill="#313436"/>
<path d="M103.667 95.9156L264.177 2.50684L294.652 130.727L134.142 224.136L103.667 95.9156Z" fill="#45494B"/>
<path d="M111.15 98.2509L259.514 11.9021L287.169 128.392L138.86 214.74L111.15 98.2509Z" fill="#4F80BA"/>
<g style="mix-blend-mode:multiply" opacity="0.4">
<path d="M259.514 11.9021L257.832 12.8796L285.054 127.305L138.372 212.677L138.86 214.74L287.169 128.392L259.514 11.9021Z" fill="#4F80BA"/>
</g>
<path d="M103.667 95.9156L134.142 224.135C136.853 225.656 138.968 229.349 138.914 232.39C138.914 232.662 138.914 232.933 138.914 233.205L238.419 290.771V299.894L133.979 239.504C131.431 237.875 129.424 229.838 129.479 226.905C129.479 225.602 129.858 224.679 130.509 224.081L100.142 95.5354L103.667 95.8612V95.9156Z" fill="#3C3E3F"/>
<path d="M171.612 233.151L165.105 236.952C164.455 237.332 163.424 237.332 162.828 236.952L157.351 233.802C156.7 233.422 156.7 232.825 157.351 232.499L163.858 228.752C164.509 228.372 165.539 228.372 166.136 228.752L171.612 231.902C172.263 232.282 172.263 232.879 171.612 233.205V233.151ZM182.132 225.711L176.655 222.561C176.005 222.181 174.974 222.181 174.378 222.561L167.871 226.308C167.22 226.688 167.22 227.285 167.871 227.611L173.348 230.761C173.998 231.141 175.029 231.141 175.625 230.761L182.132 227.014C182.783 226.634 182.783 226.036 182.132 225.711ZM192.652 219.628L187.175 216.478C186.525 216.098 185.494 216.098 184.898 216.478L178.391 220.28C177.74 220.66 177.74 221.257 178.391 221.583L183.868 224.733C184.518 225.113 185.549 225.113 186.145 224.733L192.652 220.932C193.303 220.551 193.303 219.954 192.652 219.628ZM203.172 213.546L197.695 210.396C197.045 210.016 196.014 210.016 195.418 210.396L188.911 214.143C188.26 214.523 188.26 215.121 188.911 215.446L194.388 218.596C195.038 218.976 196.069 218.976 196.665 218.596L203.172 214.849C203.823 214.469 203.823 213.872 203.172 213.546ZM213.692 207.463L208.215 204.313C207.565 203.933 206.534 203.933 205.938 204.313L199.431 208.061C198.78 208.441 198.78 209.038 199.431 209.364L204.907 212.514C205.558 212.894 206.588 212.894 207.185 212.514L213.692 208.712C214.343 208.332 214.343 207.735 213.692 207.409V207.463ZM224.212 201.381L218.735 198.231C218.085 197.851 217.054 197.851 216.458 198.231L209.951 201.978C209.3 202.358 209.3 202.956 209.951 203.282L215.427 206.431C216.078 206.812 217.108 206.812 217.705 206.431L224.212 202.684C224.863 202.304 224.863 201.707 224.212 201.381ZM234.732 195.298L229.255 192.149C228.604 191.768 227.574 191.768 226.978 192.149L220.47 195.896C219.82 196.276 219.82 196.873 220.47 197.199L225.947 200.349C226.598 200.729 227.628 200.729 228.225 200.349L234.732 196.547C235.383 196.167 235.383 195.57 234.732 195.244V195.298ZM245.252 189.216L239.775 186.066C239.124 185.686 238.094 185.686 237.498 186.066L230.99 189.813C230.34 190.193 230.34 190.791 230.99 191.117L236.467 194.267C237.118 194.647 238.148 194.647 238.745 194.267L245.252 190.519C245.903 190.139 245.903 189.542 245.252 189.216ZM255.772 183.134L250.295 179.984C249.644 179.604 248.614 179.604 248.017 179.984L241.51 183.731C240.86 184.111 240.86 184.708 241.51 185.034L246.987 188.184C247.638 188.564 248.668 188.564 249.265 188.184L255.772 184.437C256.423 184.057 256.423 183.459 255.772 183.134ZM269.708 175.096L264.231 171.946C263.58 171.566 262.55 171.566 261.954 171.946L252.03 177.703C251.38 178.083 251.38 178.68 252.03 179.006L257.507 182.156C258.158 182.536 259.188 182.536 259.785 182.156L269.708 176.399C270.359 176.019 270.359 175.422 269.708 175.096ZM314.933 182.373L309.456 179.223C308.805 178.843 307.775 178.843 307.179 179.223L300.671 182.971C300.021 183.351 300.021 183.948 300.671 184.274L306.148 187.424C306.799 187.804 307.829 187.804 308.426 187.424L314.933 183.677C315.584 183.296 315.584 182.699 314.933 182.373ZM325.453 176.291L319.976 173.141C319.325 172.761 318.295 172.761 317.698 173.141L311.191 176.888C310.541 177.268 310.541 177.866 311.191 178.192L316.668 181.341C317.319 181.722 318.349 181.722 318.946 181.341L325.453 177.594C326.104 177.214 326.104 176.617 325.453 176.291ZM335.973 170.208L330.496 167.059C329.845 166.678 328.815 166.678 328.218 167.059L321.711 170.806C321.061 171.186 321.061 171.783 321.711 172.109L327.188 175.259C327.839 175.639 328.869 175.639 329.466 175.259L335.973 171.512C336.624 171.132 336.624 170.534 335.973 170.208ZM324.531 187.967L319.054 184.817C318.403 184.437 317.373 184.437 316.777 184.817L310.269 188.564C309.619 188.944 309.619 189.542 310.269 189.868L315.746 193.017C316.397 193.398 317.427 193.398 318.024 193.017L324.531 189.27C325.182 188.89 325.182 188.293 324.531 187.967ZM335.051 181.884L329.574 178.735C328.923 178.354 327.893 178.354 327.297 178.735L320.789 182.482C320.139 182.862 320.139 183.459 320.789 183.785L326.266 186.935C326.917 187.315 327.947 187.315 328.544 186.935L335.051 183.188C335.702 182.808 335.702 182.21 335.051 181.884ZM345.571 175.802L340.094 172.652C339.443 172.272 338.413 172.272 337.816 172.652L331.309 176.454C330.659 176.834 330.659 177.431 331.309 177.757L336.786 180.907C337.437 181.287 338.467 181.287 339.064 180.907L345.571 177.16C346.222 176.78 346.222 176.182 345.571 175.856V175.802ZM184.573 235.486L179.096 232.336C178.445 231.956 177.415 231.956 176.818 232.336L166.895 238.093C166.244 238.473 166.244 239.07 166.895 239.396L172.372 242.546C173.022 242.926 174.053 242.926 174.649 242.546L184.573 236.789C185.223 236.409 185.223 235.812 184.573 235.486ZM195.092 229.403L189.616 226.254C188.965 225.873 187.935 225.873 187.338 226.254L180.831 230.001C180.18 230.381 180.18 230.978 180.831 231.304L186.308 234.454C186.959 234.834 187.989 234.834 188.585 234.454L195.092 230.653C195.743 230.272 195.743 229.675 195.092 229.349V229.403ZM205.612 223.321L200.136 220.171C199.485 219.791 198.455 219.791 197.858 220.171L191.351 223.918C190.7 224.299 190.7 224.896 191.351 225.222L196.828 228.372C197.478 228.752 198.509 228.752 199.105 228.372L205.612 224.624C206.263 224.244 206.263 223.647 205.612 223.321ZM216.132 217.239L210.655 214.089C210.005 213.709 208.974 213.709 208.378 214.089L201.871 217.836C201.22 218.216 201.22 218.814 201.871 219.139L207.348 222.289C207.998 222.669 209.029 222.669 209.625 222.289L216.132 218.488C216.783 218.108 216.783 217.51 216.132 217.184V217.239ZM226.652 211.156L221.175 208.006C220.525 207.626 219.494 207.626 218.898 208.006L212.391 211.754C211.74 212.134 211.74 212.731 212.391 213.057L217.868 216.207C218.518 216.587 219.549 216.587 220.145 216.207L226.652 212.46C227.303 212.079 227.303 211.482 226.652 211.156ZM237.172 205.074L231.695 201.924C231.045 201.544 230.014 201.544 229.418 201.924L222.911 205.671C222.26 206.051 222.26 206.649 222.911 206.974L228.388 210.124C229.038 210.504 230.069 210.504 230.665 210.124L237.172 206.377C237.823 205.997 237.823 205.4 237.172 205.074ZM247.692 198.991L242.215 195.841C241.565 195.461 240.534 195.461 239.938 195.841L233.431 199.643C232.78 200.023 232.78 200.621 233.431 200.946L238.907 204.096C239.558 204.476 240.588 204.476 241.185 204.096L247.692 200.349C248.343 199.969 248.343 199.371 247.692 199.046V198.991ZM258.212 192.909L252.735 189.759C252.084 189.379 251.054 189.379 250.458 189.759L243.951 193.506C243.3 193.886 243.3 194.484 243.951 194.81L249.427 197.959C250.078 198.34 251.108 198.34 251.705 197.959L258.212 194.212C258.863 193.832 258.863 193.235 258.212 192.909ZM268.732 186.826L263.255 183.677C262.604 183.296 261.574 183.296 260.978 183.677L254.47 187.478C253.82 187.858 253.82 188.456 254.47 188.782L259.947 191.931C260.598 192.311 261.628 192.311 262.225 191.931L268.732 188.184C269.383 187.804 269.383 187.207 268.732 186.881V186.826ZM279.252 180.744L273.775 177.594C273.124 177.214 272.094 177.214 271.498 177.594L264.99 181.396C264.34 181.776 264.34 182.373 264.99 182.699L270.467 185.849C271.118 186.229 272.148 186.229 272.745 185.849L279.252 182.102C279.903 181.722 279.903 181.124 279.252 180.798V180.744ZM190.321 243.089L184.844 239.939C184.193 239.559 183.163 239.559 182.566 239.939L176.059 243.686C175.408 244.066 175.408 244.664 176.059 244.99L181.536 248.14C182.187 248.52 183.217 248.52 183.813 248.14L190.321 244.392C190.971 244.012 190.971 243.415 190.321 243.089ZM200.84 237.007L195.364 233.857C194.713 233.477 193.683 233.477 193.086 233.857L186.579 237.604C185.928 237.984 185.928 238.581 186.579 238.907L192.056 242.057C192.707 242.437 193.737 242.437 194.333 242.057L200.84 238.31C201.491 237.93 201.491 237.332 200.84 237.007ZM211.36 230.924L205.884 227.774C205.233 227.394 204.203 227.394 203.606 227.774L197.099 231.521C196.448 231.902 196.448 232.499 197.099 232.825L202.576 235.975C203.226 236.355 204.257 236.355 204.853 235.975L211.36 232.227C212.011 231.847 212.011 231.25 211.36 230.924ZM221.88 224.842L216.403 221.692C215.753 221.312 214.722 221.312 214.126 221.692L207.619 225.493C206.968 225.873 206.968 226.471 207.619 226.797L213.096 229.947C213.746 230.327 214.777 230.327 215.373 229.947L221.88 226.145C222.531 225.765 222.531 225.167 221.88 224.842ZM209.354 254.168L203.877 251.018C203.226 250.638 202.196 250.638 201.6 251.018L195.092 254.765C194.442 255.145 194.442 255.743 195.092 256.068L200.569 259.218C201.22 259.598 202.25 259.598 202.847 259.218L209.354 255.471C210.005 255.091 210.005 254.494 209.354 254.168ZM219.874 248.085L214.397 244.935C213.746 244.555 212.716 244.555 212.12 244.935L205.612 248.737C204.962 249.117 204.962 249.714 205.612 250.04L211.089 253.19C211.74 253.57 212.77 253.57 213.367 253.19L219.874 249.443C220.525 249.063 220.525 248.465 219.874 248.14V248.085ZM230.394 242.003L224.917 238.853C224.266 238.473 223.236 238.473 222.64 238.853L216.132 242.6C215.482 242.98 215.482 243.578 216.132 243.904L221.609 247.053C222.26 247.434 223.29 247.434 223.887 247.053L230.394 243.252C231.045 242.872 231.045 242.274 230.394 241.948V242.003ZM240.914 235.92L235.437 232.771C234.786 232.39 233.756 232.39 233.159 232.771L226.652 236.518C226.002 236.898 226.002 237.495 226.652 237.821L232.129 240.971C232.78 241.351 233.81 241.351 234.407 240.971L240.914 237.224C241.565 236.844 241.565 236.246 240.914 235.92ZM307.504 197.416L302.027 194.267C301.376 193.886 300.346 193.886 299.75 194.267L289.826 200.023C289.175 200.403 289.175 201.001 289.826 201.327L295.303 204.476C295.954 204.857 296.984 204.857 297.58 204.476L307.504 198.72C308.155 198.34 308.155 197.742 307.504 197.416ZM232.346 218.759L226.869 215.609C226.218 215.229 225.188 215.229 224.592 215.609L218.084 219.357C217.434 219.737 217.434 220.334 218.084 220.66L223.561 223.81C224.212 224.19 225.242 224.19 225.839 223.81L232.346 220.063C232.997 219.682 232.997 219.085 232.346 218.759ZM242.866 212.677L237.389 209.527C236.738 209.147 235.708 209.147 235.112 209.527L228.604 213.274C227.954 213.654 227.954 214.252 228.604 214.578L234.081 217.727C234.732 218.108 235.762 218.108 236.359 217.727L242.866 213.98C243.517 213.6 243.517 213.003 242.866 212.677ZM253.386 206.594L247.909 203.445C247.258 203.064 246.228 203.064 245.632 203.445L239.124 207.192C238.474 207.572 238.474 208.169 239.124 208.495L244.601 211.645C245.252 212.025 246.282 212.025 246.879 211.645L253.386 207.843C254.037 207.463 254.037 206.866 253.386 206.54V206.594ZM263.906 200.512L258.429 197.362C257.778 196.982 256.748 196.982 256.151 197.362L249.644 201.109C248.994 201.489 248.994 202.087 249.644 202.413L255.121 205.563C255.772 205.943 256.802 205.943 257.399 205.563L263.906 201.815C264.557 201.435 264.557 200.838 263.906 200.512ZM274.426 194.429L268.949 191.28C268.298 190.899 267.268 190.899 266.671 191.28L260.164 195.081C259.514 195.461 259.514 196.059 260.164 196.385L265.641 199.534C266.292 199.915 267.322 199.915 267.919 199.534L274.426 195.787C275.076 195.407 275.076 194.81 274.426 194.484V194.429ZM288.362 186.392L282.885 183.242C282.234 182.862 281.204 182.862 280.608 183.242L270.684 188.999C270.033 189.379 270.033 189.976 270.684 190.302L276.161 193.452C276.812 193.832 277.842 193.832 278.439 193.452L288.362 187.695C289.013 187.315 289.013 186.718 288.362 186.392ZM203.335 246.728L197.858 243.578C197.207 243.198 196.177 243.198 195.581 243.578L185.657 249.334C185.006 249.714 185.006 250.312 185.657 250.638L191.134 253.788C191.785 254.168 192.815 254.168 193.411 253.788L203.335 248.031C203.986 247.651 203.986 247.053 203.335 246.728ZM213.855 240.645L208.378 237.495C207.727 237.115 206.697 237.115 206.1 237.495L199.593 241.242C198.943 241.623 198.943 242.22 199.593 242.546L205.07 245.696C205.721 246.076 206.751 246.076 207.348 245.696L213.855 241.948C214.506 241.568 214.506 240.971 213.855 240.645ZM224.375 234.563L218.898 231.413C218.247 231.033 217.217 231.033 216.62 231.413L210.113 235.214C209.463 235.595 209.463 236.192 210.113 236.518L215.59 239.668C216.241 240.048 217.271 240.048 217.868 239.668L224.375 235.866C225.025 235.486 225.025 234.889 224.375 234.563ZM234.895 228.48L229.418 225.33C228.767 224.95 227.737 224.95 227.14 225.33L220.633 229.078C219.982 229.458 219.982 230.055 220.633 230.381L226.11 233.531C226.761 233.911 227.791 233.911 228.388 233.531L234.895 229.784C235.545 229.403 235.545 228.806 234.895 228.48ZM245.415 222.398L239.938 219.248C239.287 218.868 238.257 218.868 237.66 219.248L231.153 222.995C230.502 223.375 230.502 223.973 231.153 224.299L236.63 227.448C237.281 227.829 238.311 227.829 238.907 227.448L245.415 223.701C246.065 223.321 246.065 222.724 245.415 222.398ZM293.622 205.563L288.145 202.413C287.494 202.033 286.464 202.033 285.868 202.413L237.064 230.653C236.413 231.033 236.413 231.63 237.064 231.956L242.541 235.106C243.191 235.486 244.222 235.486 244.818 235.106L293.622 206.866C294.273 206.486 294.273 205.888 293.622 205.563ZM255.935 216.315L250.458 213.166C249.807 212.785 248.777 212.785 248.18 213.166L241.673 216.913C241.022 217.293 241.022 217.89 241.673 218.216L247.15 221.366C247.801 221.746 248.831 221.746 249.427 221.366L255.935 217.564C256.585 217.184 256.585 216.587 255.935 216.261V216.315ZM266.454 210.233L260.978 207.083C260.327 206.703 259.297 206.703 258.7 207.083L252.193 210.83C251.542 211.21 251.542 211.808 252.193 212.134L257.67 215.284C258.321 215.664 259.351 215.664 259.947 215.284L266.454 211.536C267.105 211.156 267.105 210.559 266.454 210.233ZM276.974 204.151L271.498 201.001C270.847 200.621 269.817 200.621 269.22 201.001L262.713 204.802C262.062 205.182 262.062 205.78 262.713 206.106L268.19 209.255C268.84 209.636 269.871 209.636 270.467 209.255L276.974 205.508C277.625 205.128 277.625 204.531 276.974 204.205V204.151ZM287.494 198.068L282.017 194.918C281.367 194.538 280.336 194.538 279.74 194.918L273.233 198.665C272.582 199.046 272.582 199.643 273.233 199.969L278.71 203.119C279.36 203.499 280.391 203.499 280.987 203.119L287.494 199.371C288.145 198.991 288.145 198.394 287.494 198.068ZM298.014 191.986L292.537 188.836C291.887 188.456 290.856 188.456 290.26 188.836L283.753 192.583C283.102 192.963 283.102 193.561 283.753 193.886L289.23 197.036C289.88 197.416 290.911 197.416 291.507 197.036L298.014 193.235C298.665 192.855 298.665 192.257 298.014 191.931V191.986ZM285.434 165.972L279.957 162.823C279.306 162.442 278.276 162.442 277.679 162.823L271.172 166.57C270.521 166.95 270.521 167.547 271.172 167.873L276.649 171.023C277.3 171.403 278.33 171.403 278.927 171.023L285.434 167.276C286.084 166.896 286.084 166.298 285.434 165.972ZM295.954 159.89L290.477 156.74C289.826 156.36 288.796 156.36 288.199 156.74L281.692 160.487C281.041 160.867 281.041 161.465 281.692 161.791L287.169 164.941C287.82 165.321 288.85 165.321 289.446 164.941L295.954 161.193C296.604 160.813 296.604 160.216 295.954 159.89ZM306.474 153.808L300.997 150.658C300.346 150.278 299.316 150.278 298.719 150.658L292.212 154.405C291.561 154.785 291.561 155.382 292.212 155.708L297.689 158.858C298.34 159.238 299.37 159.238 299.966 158.858L306.474 155.111C307.124 154.731 307.124 154.133 306.474 153.808ZM316.072 159.347L310.595 156.197C309.944 155.817 308.914 155.817 308.317 156.197L301.81 159.944C301.159 160.324 301.159 160.922 301.81 161.248L307.287 164.397C307.938 164.778 308.968 164.778 309.565 164.397L316.072 160.65C316.722 160.27 316.722 159.673 316.072 159.347ZM325.399 164.452L320.03 161.356C319.488 161.03 318.675 161.03 318.132 161.356L308.914 166.624C308.48 166.896 307.775 166.896 307.287 166.624L300.075 162.442C299.261 162.008 298.014 162.008 297.201 162.442L280.662 172.001C279.848 172.435 279.848 173.195 280.662 173.63L295.086 181.939C295.899 182.373 297.147 182.373 297.96 181.939L325.399 166.081C326.212 165.647 326.212 164.886 325.399 164.452Z" fill="#45494B"/>
<path opacity="0.8" d="M202.196 257.698C201.871 257.698 201.6 257.643 201.383 257.535L195.906 254.385L202.413 250.475C202.413 250.475 202.901 250.312 203.226 250.312C203.552 250.312 203.823 250.366 204.04 250.475L209.517 253.625L203.01 257.535C203.01 257.535 202.522 257.698 202.196 257.698ZM192.923 252.158C192.598 252.158 192.327 252.104 192.11 251.995L186.633 248.845L196.557 242.98C196.557 242.98 197.045 242.817 197.37 242.817C197.695 242.817 197.966 242.872 198.183 242.98L203.66 246.184L193.737 252.05C193.737 252.05 193.249 252.213 192.923 252.213V252.158ZM212.77 251.615C212.445 251.615 212.174 251.561 211.957 251.452L206.48 248.302L212.987 244.392C212.987 244.392 213.475 244.229 213.801 244.229C214.126 244.229 214.397 244.284 214.614 244.392L220.091 247.542L213.584 251.452C213.584 251.452 213.096 251.615 212.77 251.615ZM183.108 246.673C182.783 246.673 182.512 246.619 182.295 246.51L176.818 243.306L183.325 239.45C183.325 239.45 183.813 239.287 184.139 239.287C184.464 239.287 184.735 239.342 184.952 239.45L190.429 242.654L183.922 246.565C183.922 246.565 183.434 246.728 183.108 246.728V246.673ZM223.29 245.533C222.965 245.533 222.694 245.478 222.477 245.37L217 242.22L223.507 238.31C223.507 238.31 223.995 238.147 224.321 238.147C224.646 238.147 224.917 238.201 225.134 238.31L230.611 241.514L224.104 245.424C224.104 245.424 223.616 245.587 223.29 245.587V245.533ZM206.86 244.121C206.534 244.121 206.263 244.066 206.046 243.958L200.569 240.808L207.077 236.952C207.077 236.952 207.565 236.789 207.89 236.789C208.215 236.789 208.486 236.844 208.703 236.952L214.18 240.156L207.673 244.012C207.673 244.012 207.185 244.175 206.86 244.175V244.121ZM173.781 241.134C173.456 241.134 173.185 241.08 172.968 240.971L167.491 237.767L177.415 231.902C177.415 231.902 177.903 231.739 178.228 231.739C178.553 231.739 178.825 231.793 179.041 231.902L184.518 235.051L174.595 240.917C174.595 240.917 174.107 241.08 173.781 241.08V241.134ZM193.628 240.591C193.303 240.591 193.032 240.536 192.815 240.428L187.338 237.224L193.845 233.368C193.845 233.368 194.333 233.205 194.659 233.205C194.984 233.205 195.255 233.259 195.472 233.368L200.949 236.572L194.442 240.482C194.442 240.482 193.954 240.645 193.628 240.645V240.591ZM233.81 239.45C233.485 239.45 233.214 239.396 232.997 239.287L227.52 236.083L234.027 232.173C234.027 232.173 234.515 232.01 234.84 232.01C235.166 232.01 235.437 232.064 235.654 232.173L241.131 235.323L234.624 239.233C234.624 239.233 234.136 239.396 233.81 239.396V239.45ZM217.38 238.038C217.054 238.038 216.783 237.984 216.566 237.875L211.089 234.671L217.596 230.815C217.596 230.815 218.084 230.652 218.41 230.652C218.735 230.652 219.006 230.707 219.223 230.815L224.7 234.02L218.193 237.875C218.193 237.875 217.705 238.038 217.38 238.038ZM163.967 235.594C163.641 235.594 163.37 235.54 163.153 235.432L157.676 232.227L164.183 228.372C164.183 228.372 164.671 228.209 164.997 228.209C165.322 228.209 165.593 228.263 165.81 228.372L171.287 231.576L164.78 235.486C164.78 235.486 164.292 235.649 163.967 235.649V235.594ZM204.203 234.454C203.877 234.454 203.606 234.4 203.389 234.291L197.912 231.087L204.419 227.231C204.419 227.231 204.907 227.068 205.233 227.068C205.558 227.068 205.829 227.123 206.046 227.231L211.523 230.435L205.016 234.291C205.016 234.291 204.528 234.454 204.203 234.454ZM244.439 233.422C244.113 233.422 243.842 233.368 243.625 233.259L238.148 230.055L286.952 201.707C286.952 201.707 287.44 201.544 287.765 201.544C288.091 201.544 288.362 201.598 288.579 201.707L294.056 204.911L245.252 233.259C245.252 233.259 244.764 233.422 244.439 233.422ZM187.718 233.042C187.392 233.042 187.121 232.988 186.904 232.879L181.427 229.675L187.935 225.819C187.935 225.819 188.423 225.656 188.748 225.656C189.073 225.656 189.344 225.711 189.561 225.819L195.038 229.023L188.531 232.933C188.531 232.933 188.043 233.096 187.718 233.096V233.042ZM227.954 231.902C227.628 231.902 227.357 231.847 227.14 231.739L221.663 228.589L228.171 224.733C228.171 224.733 228.659 224.57 228.984 224.57C229.309 224.57 229.58 224.624 229.797 224.733L235.274 227.937L228.767 231.793C228.767 231.793 228.279 231.956 227.954 231.956V231.902ZM174.541 229.458C174.215 229.458 173.944 229.403 173.727 229.295L168.25 226.091L174.758 222.235C174.758 222.235 175.246 222.072 175.571 222.072C175.896 222.072 176.167 222.126 176.384 222.235L181.861 225.385L175.354 229.295C175.354 229.295 174.866 229.458 174.541 229.458ZM214.777 228.317C214.451 228.317 214.18 228.263 213.963 228.154L208.486 224.95L214.994 221.094C214.994 221.094 215.482 220.931 215.807 220.931C216.132 220.931 216.403 220.986 216.62 221.094L222.097 224.299L215.59 228.209C215.59 228.209 215.102 228.372 214.777 228.372V228.317ZM198.292 226.905C197.966 226.905 197.695 226.851 197.478 226.742L192.002 223.538L198.509 219.682C198.509 219.682 198.997 219.519 199.322 219.519C199.648 219.519 199.919 219.574 200.136 219.682L205.612 222.832L199.105 226.742C199.105 226.742 198.617 226.905 198.292 226.905ZM238.528 225.765C238.203 225.765 237.931 225.711 237.714 225.602L232.238 222.398L238.745 218.542C238.745 218.542 239.233 218.379 239.558 218.379C239.884 218.379 240.155 218.433 240.372 218.542L245.848 221.746L239.341 225.602C239.341 225.602 238.853 225.765 238.528 225.765ZM185.115 223.321C184.789 223.321 184.518 223.267 184.301 223.158L178.825 219.954L185.332 216.098C185.332 216.098 185.82 215.935 186.145 215.935C186.47 215.935 186.742 215.989 186.959 216.098L192.435 219.248L185.928 223.158C185.928 223.158 185.44 223.321 185.115 223.321ZM225.351 222.181C225.025 222.181 224.754 222.126 224.537 222.018L219.061 218.813L225.568 214.958C225.568 214.958 226.056 214.795 226.381 214.795C226.707 214.795 226.978 214.849 227.195 214.958L232.671 218.107L226.164 222.018C226.164 222.018 225.676 222.181 225.351 222.181ZM208.866 220.769C208.541 220.769 208.27 220.714 208.053 220.606L202.576 217.401L209.083 213.546C209.083 213.546 209.571 213.383 209.896 213.383C210.222 213.383 210.493 213.437 210.71 213.546L216.187 216.695L209.679 220.606C209.679 220.606 209.191 220.769 208.866 220.769ZM249.102 219.628C248.777 219.628 248.506 219.574 248.289 219.465L242.812 216.261L249.319 212.405C249.319 212.405 249.807 212.242 250.132 212.242C250.458 212.242 250.729 212.297 250.946 212.405L256.423 215.555L249.915 219.411C249.915 219.411 249.427 219.574 249.102 219.574V219.628ZM195.689 217.184C195.364 217.184 195.092 217.13 194.876 217.021L189.399 213.817L195.906 209.961C195.906 209.961 196.394 209.798 196.719 209.798C197.045 209.798 197.316 209.853 197.533 209.961L203.01 213.166L196.502 217.076C196.502 217.076 196.014 217.239 195.689 217.239V217.184ZM235.925 216.044C235.6 216.044 235.329 215.989 235.112 215.881L229.635 212.677L236.142 208.821C236.142 208.821 236.63 208.658 236.955 208.658C237.281 208.658 237.552 208.712 237.769 208.821L243.246 212.025L236.738 215.935C236.738 215.935 236.25 216.098 235.925 216.098V216.044ZM219.44 214.632C219.115 214.632 218.844 214.577 218.627 214.469L213.15 211.265L219.657 207.409C219.657 207.409 220.145 207.246 220.47 207.246C220.796 207.246 221.067 207.3 221.284 207.409L226.761 210.559L220.254 214.469C220.254 214.469 219.766 214.632 219.44 214.632ZM259.676 213.491C259.351 213.491 259.08 213.437 258.863 213.328L253.386 210.124L259.893 206.268C259.893 206.268 260.381 206.106 260.706 206.106C261.032 206.106 261.303 206.16 261.52 206.268L266.997 209.473L260.49 213.328C260.49 213.328 260.002 213.491 259.676 213.491ZM206.263 211.047C205.938 211.047 205.667 210.993 205.45 210.885L199.973 207.68L206.48 203.825C206.48 203.825 206.968 203.662 207.293 203.662C207.619 203.662 207.89 203.716 208.107 203.825L213.584 206.974L207.077 210.885C207.077 210.885 206.589 211.047 206.263 211.047ZM246.499 209.907C246.174 209.907 245.903 209.853 245.686 209.744L240.209 206.54L246.716 202.684C246.716 202.684 247.204 202.521 247.529 202.521C247.855 202.521 248.126 202.576 248.343 202.684L253.82 205.834L247.313 209.744C247.313 209.744 246.825 209.907 246.499 209.907ZM230.014 208.495C229.689 208.495 229.418 208.441 229.201 208.332L223.724 205.128L230.231 201.272C230.231 201.272 230.719 201.109 231.045 201.109C231.37 201.109 231.641 201.164 231.858 201.272L237.335 204.422L230.828 208.332C230.828 208.332 230.34 208.495 230.014 208.495ZM270.25 207.355C269.925 207.355 269.654 207.3 269.437 207.192L263.96 203.988L270.467 200.132C270.467 200.132 270.955 199.969 271.281 199.969C271.606 199.969 271.877 200.023 272.094 200.132L277.571 203.336L271.064 207.192C271.064 207.192 270.576 207.355 270.25 207.355ZM216.837 204.911C216.512 204.911 216.241 204.856 216.024 204.748L210.547 201.544L217.054 197.688C217.054 197.688 217.542 197.525 217.868 197.525C218.193 197.525 218.464 197.579 218.681 197.688L224.158 200.892L217.651 204.802C217.651 204.802 217.163 204.965 216.837 204.965V204.911ZM257.073 203.77C256.748 203.77 256.477 203.716 256.26 203.607L250.783 200.403L257.29 196.547C257.29 196.547 257.778 196.384 258.104 196.384C258.429 196.384 258.7 196.439 258.917 196.547L264.394 199.697L257.887 203.607C257.887 203.607 257.399 203.77 257.073 203.77ZM297.201 202.684C296.876 202.684 296.604 202.63 296.387 202.521L290.911 199.317L300.834 193.452C300.834 193.452 301.322 193.289 301.647 193.289C301.973 193.289 302.244 193.343 302.461 193.452L307.938 196.602L298.014 202.467C298.014 202.467 297.526 202.63 297.201 202.63V202.684ZM240.588 202.358C240.263 202.358 239.992 202.304 239.775 202.195L234.298 198.991L240.805 195.135C240.805 195.135 241.293 194.972 241.619 194.972C241.944 194.972 242.215 195.027 242.432 195.135L247.909 198.34L241.402 202.25C241.402 202.25 240.914 202.413 240.588 202.413V202.358ZM280.825 201.218C280.499 201.218 280.228 201.164 280.011 201.055L274.534 197.851L281.041 193.995C281.041 193.995 281.529 193.832 281.855 193.832C282.18 193.832 282.451 193.886 282.668 193.995L288.145 197.145L281.638 201.001C281.638 201.001 281.15 201.164 280.825 201.164V201.218ZM227.411 198.774C227.086 198.774 226.815 198.72 226.598 198.611L221.121 195.407L227.628 191.551C227.628 191.551 228.116 191.388 228.442 191.388C228.767 191.388 229.038 191.443 229.255 191.551L234.732 194.701L228.225 198.611C228.225 198.611 227.737 198.774 227.411 198.774ZM267.647 197.634C267.322 197.634 267.051 197.579 266.834 197.471L261.357 194.266L267.864 190.411C267.864 190.411 268.352 190.248 268.678 190.248C269.003 190.248 269.274 190.302 269.491 190.411L274.968 193.615L268.461 197.525C268.461 197.525 267.973 197.688 267.647 197.688V197.634ZM251.163 196.222C250.837 196.222 250.566 196.167 250.349 196.059L244.872 192.855L251.38 188.999C251.38 188.999 251.868 188.836 252.193 188.836C252.518 188.836 252.789 188.89 253.006 188.999L258.483 192.149L251.976 196.059C251.976 196.059 251.488 196.222 251.163 196.222ZM291.399 195.081C291.073 195.081 290.802 195.027 290.585 194.918L285.108 191.714L291.616 187.858C291.616 187.858 292.104 187.695 292.429 187.695C292.754 187.695 293.025 187.75 293.242 187.858L298.719 191.062L292.212 194.918C292.212 194.918 291.724 195.081 291.399 195.081ZM237.986 192.637C237.66 192.637 237.389 192.583 237.172 192.474L231.695 189.27L238.203 185.414C238.203 185.414 238.691 185.251 239.016 185.251C239.341 185.251 239.612 185.306 239.829 185.414L245.306 188.619L238.799 192.529C238.799 192.529 238.311 192.692 237.986 192.692V192.637ZM278.222 191.497C277.896 191.497 277.625 191.443 277.408 191.334L271.931 188.13L281.855 182.265C281.855 182.265 282.343 182.102 282.668 182.102C282.994 182.102 283.265 182.156 283.482 182.265L288.958 185.469L279.035 191.334C279.035 191.334 278.547 191.497 278.222 191.497ZM317.373 191.28C317.048 191.28 316.777 191.225 316.56 191.117L311.083 187.913L317.59 184.002C317.59 184.002 318.078 183.839 318.403 183.839C318.729 183.839 319 183.894 319.217 184.002L324.694 187.207L318.187 191.117C318.187 191.117 317.698 191.28 317.373 191.28ZM261.791 190.031C261.466 190.031 261.195 189.976 260.978 189.868L255.501 186.663L262.008 182.808C262.008 182.808 262.496 182.645 262.821 182.645C263.147 182.645 263.418 182.699 263.635 182.808L269.112 186.012L262.604 189.868C262.604 189.868 262.116 190.031 261.791 190.031ZM248.56 186.501C248.234 186.501 247.963 186.446 247.746 186.338L242.27 183.133L248.777 179.278C248.777 179.278 249.265 179.115 249.59 179.115C249.915 179.115 250.187 179.169 250.403 179.278L255.88 182.482L249.373 186.392C249.373 186.392 248.885 186.555 248.56 186.555V186.501ZM307.721 185.686C307.395 185.686 307.124 185.632 306.907 185.523L301.431 182.319L307.938 178.463C307.938 178.463 308.426 178.3 308.751 178.3C309.076 178.3 309.348 178.354 309.565 178.463L315.041 181.667L308.534 185.523C308.534 185.523 308.046 185.686 307.721 185.686ZM327.893 185.143C327.568 185.143 327.297 185.089 327.08 184.98L321.603 181.776L328.11 177.866C328.11 177.866 328.598 177.703 328.923 177.703C329.249 177.703 329.52 177.757 329.737 177.866L335.214 181.07L328.706 184.926C328.706 184.926 328.218 185.089 327.893 185.089V185.143ZM272.311 183.894C271.986 183.894 271.714 183.839 271.498 183.731L266.021 180.527L272.528 176.671C272.528 176.671 273.016 176.508 273.341 176.508C273.667 176.508 273.938 176.562 274.155 176.671L279.632 179.875L273.124 183.785C273.124 183.785 272.636 183.948 272.311 183.948V183.894ZM259.08 180.364C258.754 180.364 258.483 180.309 258.266 180.201L252.789 176.997L262.713 171.132C262.713 171.132 263.201 170.969 263.526 170.969C263.852 170.969 264.123 171.023 264.34 171.132L269.817 174.336L259.893 180.201C259.893 180.201 259.405 180.364 259.08 180.364ZM297.689 179.929C297.255 179.929 296.876 179.821 296.604 179.658L282.18 171.349V170.914L298.719 161.356C298.99 161.193 299.37 161.085 299.804 161.085C300.238 161.085 300.617 161.193 300.888 161.356L308.1 165.538C308.426 165.701 308.805 165.809 309.239 165.809C309.673 165.809 310.053 165.701 310.378 165.538L319.596 160.27C319.596 160.27 319.976 160.161 320.193 160.161C320.41 160.161 320.627 160.161 320.789 160.27L326.158 163.366V163.8L298.719 179.658C298.448 179.821 298.068 179.929 297.635 179.929H297.689ZM318.241 179.549C317.915 179.549 317.644 179.495 317.427 179.386L311.95 176.236L318.458 172.381C318.458 172.381 318.946 172.218 319.271 172.218C319.596 172.218 319.868 172.272 320.084 172.381L325.561 175.53L319.054 179.386C319.054 179.386 318.566 179.549 318.241 179.549ZM338.413 179.006C338.088 179.006 337.816 178.952 337.6 178.843L332.123 175.639L338.63 171.729C338.63 171.729 339.118 171.566 339.443 171.566C339.769 171.566 340.04 171.62 340.257 171.729L345.734 174.933L339.226 178.843C339.226 178.843 338.738 179.006 338.413 179.006ZM328.761 173.412C328.435 173.412 328.164 173.358 327.947 173.25L322.47 170.045L328.978 166.19C328.978 166.19 329.466 166.027 329.791 166.027C330.116 166.027 330.387 166.081 330.604 166.19L336.081 169.394L329.574 173.25C329.574 173.25 329.086 173.412 328.761 173.412ZM278.818 168.905C278.493 168.905 278.222 168.851 278.005 168.742L272.528 165.592L279.035 161.736C279.035 161.736 279.523 161.573 279.848 161.573C280.174 161.573 280.445 161.628 280.662 161.736L286.139 164.94L279.632 168.796C279.632 168.796 279.143 168.959 278.818 168.959V168.905ZM289.338 162.822C289.013 162.822 288.742 162.768 288.525 162.66L283.048 159.51L289.555 155.654C289.555 155.654 290.043 155.491 290.368 155.491C290.694 155.491 290.965 155.545 291.182 155.654L296.659 158.804L290.151 162.714C290.151 162.714 289.663 162.877 289.338 162.877V162.822ZM309.51 162.279C309.185 162.279 308.914 162.225 308.697 162.116L303.22 158.912L309.727 155.002C309.727 155.002 310.215 154.839 310.541 154.839C310.866 154.839 311.137 154.894 311.354 155.002L316.831 158.152L310.324 162.062C310.324 162.062 309.836 162.225 309.51 162.225V162.279ZM299.912 156.74C299.587 156.74 299.316 156.686 299.099 156.577L293.622 153.373L300.129 149.517C300.129 149.517 300.617 149.354 300.943 149.354C301.268 149.354 301.539 149.409 301.756 149.517L307.233 152.721L300.726 156.631C300.726 156.631 300.238 156.794 299.912 156.794V156.74Z" fill="#A2A2A6"/>
<path opacity="0.3" d="M328.923 225.493L289.067 248.52L263.201 233.585V233.531L303.057 210.504H303.112L328.923 225.439V225.493Z" fill="#A1A1A5"/>
<path d="M303.112 210.504H303.057L263.201 233.531V233.585L264.936 234.563L303.057 212.568H303.112L327.188 226.471L328.923 225.493V225.439L303.112 210.504Z" fill="#45494B"/>
<path d="M103.124 96.6217L267.159 1.14917L267.431 1.96378L103.341 97.4363L103.124 96.6217Z" fill="#C0C6C7"/>
<path d="M95.3701 95.9157L259.459 0.388916L267.159 1.14922L103.124 96.6217L95.3701 95.9157Z" fill="#E9ECED"/>
<path d="M103.341 97.4364L103.124 96.6218L95.3701 95.9158L95.587 96.7304L103.341 97.4364Z" fill="#B2B9BB"/>
<path d="M193.14 256.014V290.771L154.152 313.526V278.769L193.14 256.014Z" fill="#C0C6C7"/>
<path d="M154.152 278.769V313.526L151.711 312.114L151.657 277.357L154.152 278.769Z" fill="#B2B9BB"/>
<path d="M193.14 256.014L154.152 278.769L151.657 277.357L190.646 254.602L193.14 256.014Z" fill="#E9ECED"/>
<path d="M153.447 43.346L193.954 19.7766L197.478 20.1568L156.971 43.7262L153.447 43.346Z" fill="#E9ECED"/>
<path d="M192.815 28.0313L189.29 27.6511L192.381 40.9565L195.906 41.2823L192.815 28.0313Z" fill="#B2B9BB"/>
<path d="M167.057 58.0633L163.967 44.9752L192.761 28.1942L195.797 41.3366L201.654 37.9153L197.478 20.1567L156.971 43.7262L161.201 61.4847L167.057 58.0633Z" fill="#C0C6C7"/>
<path d="M161.147 61.4846L156.971 43.7261L153.447 43.3459L157.622 61.1045L161.147 61.4846Z" fill="#B2B9BB"/>
<g style="mix-blend-mode:multiply" opacity="0.5">
<path d="M386.512 150.006L382.336 152.395C381.36 152.939 380.601 152.613 380.601 151.635C380.601 150.658 381.36 149.409 382.336 148.866L386.512 146.476C387.488 145.933 388.247 146.259 388.247 147.236C388.247 148.214 387.488 149.463 386.512 150.006Z" fill="#B2B9BB"/>
<path d="M386.512 155.925L382.336 158.315C381.36 158.858 380.601 158.532 380.601 157.555C380.601 156.577 381.36 155.328 382.336 154.785L386.512 152.395C387.488 151.852 388.247 152.178 388.247 153.156C388.247 154.133 387.488 155.382 386.512 155.925Z" fill="#B2B9BB"/>
<path d="M386.512 170.588L382.336 172.978C381.36 173.521 380.601 173.195 380.601 172.218C380.601 171.24 381.36 169.991 382.336 169.448L386.512 167.058C387.488 166.515 388.247 166.841 388.247 167.819C388.247 168.796 387.488 170.045 386.512 170.588Z" fill="#B2B9BB"/>
<path d="M386.512 176.508L382.336 178.897C381.36 179.441 380.601 179.115 380.601 178.137C380.601 177.16 381.36 175.911 382.336 175.367L386.512 172.978C387.488 172.435 388.247 172.761 388.247 173.738C388.247 174.716 387.488 175.965 386.512 176.508Z" fill="#B2B9BB"/>
</g>
<g style="mix-blend-mode:multiply" opacity="0.5">
<path d="M162.231 280.018L158.056 282.407C157.08 282.951 156.321 282.625 156.321 281.647C156.321 280.67 157.08 279.421 158.056 278.877L162.231 276.488C163.207 275.945 163.967 276.271 163.967 277.248C163.967 278.226 163.207 279.475 162.231 280.018Z" fill="#B2B9BB"/>
<path d="M162.231 285.883L158.056 288.273C157.08 288.816 156.321 288.49 156.321 287.512C156.321 286.535 157.08 285.286 158.056 284.743L162.231 282.353C163.207 281.81 163.967 282.136 163.967 283.113C163.967 284.091 163.207 285.34 162.231 285.883Z" fill="#B2B9BB"/>
<path d="M162.231 300.6L158.056 302.99C157.08 303.533 156.321 303.207 156.321 302.23C156.321 301.252 157.08 300.003 158.056 299.46L162.231 297.07C163.207 296.527 163.967 296.853 163.967 297.831C163.967 298.808 163.207 300.057 162.231 300.6Z" fill="#B2B9BB"/>
<path d="M162.231 306.466L158.056 308.855C157.08 309.398 156.321 309.072 156.321 308.095C156.321 307.117 157.08 305.868 158.056 305.325L162.231 302.936C163.207 302.393 163.967 302.718 163.967 303.696C163.967 304.674 163.207 305.923 162.231 306.466Z" fill="#B2B9BB"/>
</g>
</svg>
